<?xml version="1.0" encoding="utf-8"?>
<!-- Generator: Adobe Illustrator 16.0.0, SVG Export Plug-In . SVG Version: 6.00 Build 0)  -->
<!DOCTYPE svg PUBLIC "-//W3C//DTD SVG 1.1//EN" "http://www.w3.org/Graphics/SVG/1.1/DTD/svg11.dtd">
<svg version="1.1" id="Calque_1" xmlns="http://www.w3.org/2000/svg" xmlns:xlink="http://www.w3.org/1999/xlink" x="0px" y="0px"
	 width="397.484px" height="75.739px" viewBox="0 0 397.484 75.739" enable-background="new 0 0 397.484 75.739"
	 xml:space="preserve">
<g>
	<path d="M384.961,2.186l4.208,2.616v15.785c-3.357-1.633-9.662-4.198-16.149-4.198c-4.642,0-9.557,0.227-14.053,1.877
		c-1.616,0.658-2.476,1.064-2.477,1.065c-9.85,4.187-16.468,12.01-16.468,19.468c0,11.679,14.122,21.546,30.839,21.546
		c6.612,0,12.218-2.653,17.639-5.219l0.669-0.315v5.068h8.314V0L384.961,2.186z M389.169,50.664
		c-4.764,3.471-9.362,4.953-15.354,4.953c-13.701,0-24.847-8.171-24.847-18.215c0-9.891,9.614-17.35,22.364-17.35
		c6.378,0,12.873,2.095,17.836,5.751V50.664z"/>
	<path d="M301.083,16.879c-6.16,0-12.398,1.143-17.566,3.216c-8.22,3.282-16.515,10.424-16.515,18.982
		c0,11.84,13.966,21.53,31.129,21.599c0.108,0.002,0.215,0.002,0.324,0.002c5.792,0,12.516-1.718,16.931-3.349
		c9.661-3.619,16.407-11.563,16.407-19.318C331.792,26.359,318.017,16.879,301.083,16.879 M322.699,39.077
		c0,6.152-4.565,12.462-11.104,15.344c-3.146,1.324-7.812,1.917-11.039,1.917c-13.515,0-24.51-8.222-24.51-18.327
		c0-6.288,4.419-12.31,11.262-15.345c2.909-1.324,6.266-1.915,10.882-1.915C311.705,20.75,322.699,28.972,322.699,39.077"/>
	<path d="M251.918,20.479c-3.691-2.216-7.17-3.162-11.627-3.162c-6.784,0-14.256,3.585-17.979,7.02
		c-0.798-1.305-1.792-2.401-2.873-3.17c-2.923-2.483-7.079-3.85-11.702-3.85c-5.344,0-12.105,2.42-16.608,5.92v-7.025l-12.48,2.128
		l4.149,2.691v38.852h8.331V27.86c3.347-4.407,8.248-6.736,14.179-6.736c3.933,0,5.976,1.154,8.355,3.271
		c1.437,1.54,2.165,3.355,2.165,5.397v30.09h7.812V27.859c3.336-4.469,8.12-6.735,14.221-6.735c3.878,0,7.453,1.197,9.793,3.271
		c1.438,1.549,2.166,3.366,2.166,5.397v30.09h8.274V29.26C258.093,25.884,255.843,22.685,251.918,20.479"/>
	<path d="M143.258,16.879c-6.153,0-12.391,1.143-17.566,3.217c-8.22,3.302-16.515,10.452-16.515,18.981
		c0,11.84,13.966,21.53,31.129,21.599c0.11,0.002,0.219,0.002,0.329,0.002c5.825,0,12.562-1.718,16.977-3.349
		c9.631-3.627,16.357-11.571,16.357-19.318C173.969,26.359,160.192,16.879,143.258,16.879 M164.874,39.077
		c0,6.175-4.565,12.485-11.103,15.344c-3.146,1.324-7.811,1.917-11.039,1.917c-13.484,0-24.454-8.222-24.454-18.327
		c0-6.282,4.398-12.306,11.206-15.346c2.867-1.323,6.238-1.914,10.93-1.914C153.901,20.75,164.874,28.972,164.874,39.077"/>
	<path d="M105.59,17.329c-1.831-0.636-3.841-0.946-6.146-0.946c-6.771,0-13.858,3.359-18.045,6.776v-6.946l-12.593,2.128
		l4.186,2.691v38.85h8.407V27.798c3.989-4.882,8.217-6.874,14.575-6.874c2.446,0,4.804,0.601,7.406,1.326
		c0.864,0.268,1.759,0.62,2.548,0.93l0.18,0.07l2.196-4.903l-0.192-0.081C107.126,17.856,106.322,17.558,105.59,17.329"/>
	<path d="M30.933,15.92c-6.822,0-12.622,2.819-18.232,5.545l-0.116,0.056v-5.638L0,18.008l4.231,2.618v55.113h8.354V55.707
		c5.843,2.962,11.177,4.463,15.857,4.463c5.344,0,9.66-0.211,16.557-2.941c7.834-3.069,16.981-10.066,16.981-19.683
		c0.021-4.913-1.777-9.22-5.342-12.8C51.135,19.219,41.525,15.92,30.933,15.92 M52.99,39.01c0,9.822-9.665,17.229-22.481,17.229
		c-6.556,0-13.082-2.073-17.924-5.688V25.673c4.734-3.475,9.355-4.957,15.432-4.957C41.787,20.716,52.99,28.922,52.99,39.01"/>
</g>
</svg>
