<!-- Generated by IcoMoon.io -->
<svg version="1.1" xmlns="http://www.w3.org/2000/svg" width="32" height="32" viewBox="0 0 32 32">
<title>bank-cheque</title>
<path d="M25.927 9.655v0h-0.056v0.009c-1.478 0.028-2.726 0.986-3.184 2.311l-0.008 0.024-0.045 0.13h-0.688l-0.265 0.568h0.837c-0.009 0.15-0.024 0.318-0.024 0.457 0 0.163 0.014 0.293 0.027 0.457h-0.682l-0.242 0.567h1.048l0.046 0.128c0.483 1.362 1.76 2.319 3.261 2.319 1.042 0 1.976-0.462 2.609-1.192l0.003-0.004 0.041-0.045-0.451-0.343-0.034 0.038c-0.533 0.6-1.306 0.978-2.167 0.978-1.126 0-2.101-0.643-2.579-1.582l-0.008-0.016-0.142-0.281h3.797l0.242-0.567h-4.17c-0.017-0.131-0.028-0.284-0.030-0.44v-0.003c0-0.003 0-0.008 0-0.012 0-0.162 0.010-0.322 0.029-0.478l-0.002 0.018h4.56l0.265-0.568h-4.696l0.138-0.278c0.48-0.969 1.462-1.622 2.597-1.622 0.857 0 1.627 0.373 2.155 0.965l0.002 0.003 0.036 0.038 0.433-0.33-0.040-0.049c-0.638-0.733-1.572-1.196-2.613-1.199h-0.001z"></path>
<path d="M0 11.938v13.315h25.925v-6.025c-0.095 0.005-0.189 0.014-0.286 0.014s-0.191-0.009-0.286-0.014v5.457h-24.783v-12.172h19.026c0.020-0.193 0.050-0.384 0.088-0.571z"></path>
<path d="M3.252 12.024l-3.166 3.186 0.404 0.404 3.166-3.185z"></path>
<path d="M4.837 12.024l-4.753 4.779 0.404 0.404 4.754-4.778z"></path>
<path d="M19.301 23.091v0.571h4.753v-0.571z"></path>
<path d="M3.455 15.128v0.571h16.676c-0.071-0.147-0.148-0.335-0.216-0.529l-0.013-0.042h-16.447z"></path>
<path d="M3.455 16.72v0.571h12.737v-0.571z"></path>
<path d="M3.455 18.312v0.571h7.954v-0.571z"></path>
<path d="M25.64 6.747c-0.009 0-0.020 0-0.032 0-3.53 0-6.392 2.862-6.392 6.392s2.862 6.392 6.392 6.392c3.53 0 6.392-2.861 6.392-6.392v0c-0.009-3.516-2.848-6.365-6.357-6.392h-0.002zM25.64 7.318c0.009 0 0.020 0 0.032 0 3.215 0 5.821 2.606 5.821 5.821s-2.606 5.821-5.821 5.821c-3.215 0-5.821-2.606-5.821-5.821v0c0-0.004 0-0.009 0-0.014 0-3.2 2.59-5.796 5.788-5.806h0.001z"></path>
<path d="M3.453 19.908v2.164h10.080v-2.164zM4.025 20.479h2.598v1.021h-2.598zM7.191 20.479h5.771v1.021h-5.767z"></path>
</svg>
