<!-- Generated by IcoMoon.io -->
<svg version="1.1" xmlns="http://www.w3.org/2000/svg" width="32" height="32" viewBox="0 0 32 32">
<title>calendar</title>
<path d="M28.418 32h-24.836c-2.102 0-3.821-1.719-3.821-3.821v-21.97c0-2.101 1.719-3.821 3.821-3.821h24.836c2.102 0 3.821 1.719 3.821 3.821v21.97c0 2.102-1.719 3.821-3.821 3.821zM3.582 3.534c-1.433 0-2.675 1.242-2.675 2.675v21.97c0 1.433 1.242 2.675 2.675 2.675h24.836c1.433 0 2.675-1.242 2.675-2.675v-21.97c0-1.433-1.242-2.675-2.675-2.675h-24.836z"></path>
<path d="M5.397 0h1.146v6.687h-1.146v-6.687z"></path>
<path d="M12.084 0h1.146v6.687h-1.146v-6.687z"></path>
<path d="M18.77 0h1.146v6.687h-1.146v-6.687z"></path>
<path d="M25.457 0h1.146v6.687h-1.146v-6.687z"></path>
<path d="M10.173 27.224l2.388-7.26-6.209-4.49h7.642l2.388-7.26 2.388 7.26h7.642l-6.209 4.49 2.388 7.26-6.209-4.49-6.209 4.49zM16.287 21.302l4.012 2.866-1.528-4.776 4.012-2.866h-4.872l-1.528-4.776-1.528 4.776h-4.967l4.012 2.866-1.528 4.681 3.916-2.77z"></path>
</svg>
