<!-- Generated by IcoMoon.io -->
<svg version="1.1" xmlns="http://www.w3.org/2000/svg" width="32" height="32" viewBox="0 0 32 32">
<title>comment</title>
<path d="M31.978 14.632c0.014-0.108 0.022-0.233 0.022-0.36 0-0.768-0.289-1.47-0.764-2l0.003 0.003c-0.639-0.659-1.522-1.079-2.502-1.113h-9.018c0.288-1.114 0.454-2.394 0.454-3.712 0-1.171-0.13-2.311-0.378-3.407l0.019 0.103c-0.331-1.721-1.398-2.833-2.713-2.833h-0.045c-1.168 0.017-2.132 0.874-2.314 1.994l-0.002 0.014c-0.139 1.212-0.327 2.275-0.573 3.316l0.038-0.189c-0.62 2.589-3.774 5.975-6.022 7.486-0.178-0.653-0.765-1.124-1.461-1.126h-5.21c-0.833 0.002-1.509 0.677-1.511 1.511v14.67c0.001 0.834 0.676 1.511 1.511 1.513h5.21c0.589-0.001 1.1-0.338 1.349-0.83l0.004-0.008c1.32 0.646 2.872 1.024 4.512 1.024 0.081 0 0.162-0.001 0.242-0.003h0.277c0.964-0.018 2.605-0.028 5.012-0.028 1.611 0 3.294 0 4.702 0.007 1.465 0 2.63 0 3.112 0 0.021 0.001 0.047 0.001 0.072 0.001 1.395 0 2.586-0.878 3.047-2.113l0.007-0.022c0.128-0.282 0.202-0.611 0.202-0.958 0-0.604-0.225-1.155-0.596-1.574l0.002 0.003c0.867-0.277 1.525-0.979 1.733-1.855l0.004-0.017c0.061-0.205 0.095-0.44 0.095-0.683 0-0.676-0.27-1.288-0.707-1.736h0.001c0.79-0.247 1.389-0.888 1.571-1.686l0.003-0.016c0.058-0.205 0.091-0.441 0.091-0.684 0-0.909-0.462-1.709-1.162-2.18l-0.009-0.006c0.959-0.462 1.624-1.398 1.693-2.495v-0.008zM6.718 29.492h-5.21c-0.278-0.001-0.503-0.226-0.504-0.504v-14.67c0-0.278 0.226-0.504 0.504-0.504v0h5.21c0.278 0 0.504 0.226 0.504 0.504v0 14.67c-0.001 0.278-0.226 0.503-0.504 0.504v0zM30.975 14.544c-0.121 1.036-0.938 1.849-1.965 1.962l-0.010 0.001c-0.255 0.027-0.453 0.241-0.453 0.501 0 0.207 0.126 0.386 0.305 0.463l0.004 0.001c0.723 0.308 1.882 1.013 1.54 2.274-0.208 0.776-0.668 1.067-1.896 1.202-0.254 0.028-0.45 0.241-0.45 0.501 0 0.212 0.131 0.394 0.317 0.468l0.004 0.001c0.648 0.245 1.102 0.86 1.102 1.582 0 0.135-0.016 0.265-0.046 0.391l0.002-0.011c-0.242 0.765-0.945 1.309-1.776 1.309-0.052 0-0.104-0.002-0.155-0.006h0.006c-0.009-0.001-0.019-0.001-0.030-0.001-0.232 0-0.428 0.16-0.483 0.375l-0.001 0.004c-0.010 0.038-0.017 0.082-0.017 0.127 0 0.197 0.114 0.369 0.28 0.451l0.003 0.001c0.572 0.255 0.964 0.818 0.964 1.473 0 0.195-0.035 0.383-0.098 0.555l0.004-0.011c-0.323 0.882-1.156 1.501-2.132 1.501-0.023 0-0.046 0-0.068-0.001h0.004c-0.479 0-1.643 0-3.102 0-1.408 0-3.091 0-4.703 0-2.416 0-4.061 0.008-5.032 0.028-0.131 0.006-0.285 0.010-0.44 0.010-1.613 0-3.132-0.401-4.463-1.109l0.051 0.025v-13.523c2.389-1.408 6.208-5.288 6.947-8.409 0.218-0.888 0.413-1.996 0.544-3.123l0.013-0.135c0.136-0.634 0.692-1.103 1.358-1.104v0c0.812 0 1.489 0.791 1.725 2.016 0.233 0.918 0.367 1.971 0.367 3.056 0 1.453-0.241 2.85-0.684 4.154l0.027-0.091c-0.029 0.062-0.046 0.134-0.046 0.21 0 0.278 0.225 0.503 0.503 0.504v0q3.473 0 6.96 0h2.773c0.693 0.035 1.312 0.329 1.765 0.786v0c0.312 0.351 0.504 0.815 0.504 1.325 0 0.096-0.006 0.19-0.020 0.283l0.001-0.011z"></path>
</svg>
