<!-- Generated by IcoMoon.io -->
<svg version="1.1" xmlns="http://www.w3.org/2000/svg" width="32" height="32" viewBox="0 0 32 32">
<title>country-hu</title>
<path fill="#008d47" d="M0.474 12.156c1.785-7.032 8.058-12.15 15.527-12.15 8.834 0 15.996 7.162 15.996 15.996s-7.162 15.996-15.996 15.996c-1.365 0-2.691-0.171-3.956-0.493l0.111 0.024c-7.032-1.787-12.15-8.061-12.15-15.531 0-1.364 0.171-2.688 0.492-3.953l-0.024 0.111z"></path>
<path fill="#d2222d" d="M0.935 10.627h30.132c-2.274-6.244-8.159-10.621-15.066-10.621s-12.792 4.378-15.031 10.51l-0.035 0.111z"></path>
<path fill="#f6f6f6" d="M31.667 19.295c0-0.033 0.015-0.065 0.025-0.105s0.025-0.12 0.033-0.178c0.008-0.031 0.014-0.067 0.015-0.105v-0.001c0-0.065 0.025-0.12 0.033-0.186s0-0.065 0.015-0.090c0.015-0.073 0.025-0.153 0.040-0.226 0-0.015 0-0.033 0-0.048 0.015-0.090 0.025-0.186 0.040-0.276 0-0.025 0-0.048 0-0.073 0-0.065 0.015-0.138 0.025-0.203s0-0.065 0-0.098c0.009-0.053 0.014-0.114 0.015-0.177v-0.001c0-0.033 0-0.065 0-0.098s0-0.12 0.015-0.186 0-0.065 0-0.098c0-0.073 0-0.138 0.015-0.211v-0.063c0-0.090 0-0.186 0.015-0.276v-0.048c0-0.073 0-0.153 0-0.226v-0.649c0.002-0.030 0.003-0.066 0.003-0.102s-0.001-0.071-0.003-0.106v0.005-0.073c0-0.185-0.015-0.364-0.033-0.552 0.002-0.011 0.003-0.024 0.003-0.036s-0.001-0.025-0.003-0.038v0.001c0-0.065 0-0.13-0.015-0.203 0-0.033 0-0.058 0-0.090s0-0.12-0.015-0.185 0-0.058 0-0.090-0.015-0.13-0.025-0.203c0-0.025 0-0.048 0-0.073-0.025-0.178-0.048-0.364-0.080-0.544 0-0.015 0-0.033 0-0.048-0.011-0.086-0.025-0.16-0.043-0.232l0.003 0.014c0-0.025 0-0.048-0.015-0.073-0.011-0.076-0.025-0.143-0.043-0.207l0.003 0.012c0-0.025 0-0.048-0.015-0.080s-0.025-0.13-0.040-0.203c0-0.025 0-0.040-0.015-0.065-0.015-0.080-0.040-0.163-0.058-0.251v-0.015c-0.025-0.080-0.040-0.17-0.065-0.251v0c-0.12-0.469-0.251-0.933-0.421-1.386h-30.14c-0.149 0.393-0.308 0.904-0.439 1.426l-0.022 0.105c-0.3 1.157-0.473 2.485-0.473 3.854 0 0.882 0.072 1.748 0.21 2.591l-0.012-0.092c-0.002 0.004-0.003 0.008-0.003 0.013s0.001 0.009 0.003 0.013v0c0.011 0.090 0.025 0.167 0.043 0.243l-0.003-0.015c0 0.015 0 0.033 0 0.048 0.015 0.073 0.025 0.138 0.040 0.211 0 0.025 0 0.040 0.015 0.065 0.015 0.065 0.025 0.13 0.040 0.196 0 0.025 0 0.048 0.015 0.073 0.015 0.065 0.025 0.12 0.040 0.186s0.015 0.058 0.025 0.090 0.025 0.113 0.040 0.178 0.025 0.090 0.033 0.13l0.048 0.196c0.018 0.079 0.038 0.144 0.062 0.208l-0.004-0.012c0 0.033 0.015 0.058 0.025 0.080 0.018 0.075 0.038 0.137 0.061 0.197l-0.004-0.011c0 0.033 0.015 0.058 0.025 0.090s0.040 0.12 0.058 0.178 0.015 0.058 0.025 0.080 0.040 0.12 0.058 0.178 0.015 0.058 0.025 0.080c0.025 0.065 0.040 0.12 0.065 0.186 0 0.015 0 0.033 0.015 0.040v0c0.015 0.040 0.025 0.073 0.040 0.113h30.025c0.015-0.040 0.025-0.073 0.040-0.113v0c0.033-0.098 0.065-0.186 0.098-0.283 0 0 0-0.015 0-0.025 0.040-0.12 0.080-0.251 0.12-0.374 0-0.015 0-0.033 0.015-0.048 0.033-0.113 0.073-0.236 0.105-0.356l0.025-0.073c0.040-0.138 0.073-0.283 0.113-0.421 0.025-0.090 0.040-0.186 0.065-0.276 0.009-0.027 0.014-0.058 0.015-0.090v-0.001c0.013-0.069 0.026-0.126 0.043-0.182l-0.003 0.012z"></path>
</svg>
