<!-- Generated by IcoMoon.io -->
<svg version="1.1" xmlns="http://www.w3.org/2000/svg" width="32" height="32" viewBox="0 0 32 32">
<title>country-eur</title>
<path fill="#006eb7" d="M0.47 12.149c1.786-7.031 8.061-12.149 15.53-12.149 8.837 0 16 7.164 16 16s-7.164 16-16 16c-1.366 0-2.694-0.171-3.959-0.494l0.111 0.024c-7.032-1.788-12.151-8.063-12.151-15.534 0-1.366 0.171-2.693 0.493-3.958l-0.024 0.111z"></path>
<path fill="#ffd300" d="M7.776 20.621l-0.333-1.012-0.326 1.017h-1.063l0.863 0.626-0.326 1.012 0.863-0.626 0.863 0.626-0.333-1.012 0.863-0.626h-1.063zM6.157 16.867l0.867 0.626-0.333-1.012 0.863-0.626h-1.063l-0.333-1.012-0.326 1.012h-1.063l0.867 0.621-0.326 1.012zM21.227 24.28l-0.326-1.012-0.333 1.012h-1.063l0.863 0.626-0.333 1.012 0.867-0.626 0.863 0.626-0.326-1.012 0.867-0.626zM11.421 24.307l-0.326-1.012-0.326 1.012h-1.063l0.863 0.626-0.326 1.012 0.863-0.626 0.863 0.626-0.333-1.012 0.863-0.626zM16.403 25.619l-0.333-1.012-0.326 1.017h-1.066l0.863 0.626-0.326 1.012 0.863-0.626 0.867 0.621-0.333-1.012 0.863-0.626zM24.862 20.626l-0.333-1.012-0.326 1.012h-1.066l0.867 0.626-0.326 1.012 0.863-0.626 0.863 0.626-0.333-1.012 0.863-0.626zM27.218 15.833h-1.063l-0.326-1.012-0.333 1.012h-1.063l0.863 0.626-0.333 1.012 0.867-0.621 0.863 0.633-0.326-1.017zM23.593 12.483l0.863-0.626 0.863 0.626-0.333-1.012 0.863-0.626h-1.063l-0.333-1.017-0.326 1.017h-1.063l0.867 0.626zM20.961 6.289l-0.326 1.012h-1.063l0.867 0.626-0.326 1.012 0.863-0.626 0.863 0.621-0.333-1.012 0.863-0.626h-1.063zM6.519 12.572l0.863-0.626 0.863 0.626-0.333-1.012 0.863-0.626h-1.063l-0.333-1.012-0.326 1.012h-1.075l0.863 0.626zM10.145 8.947l0.863-0.626 0.863 0.626-0.326-1.012 0.863-0.626h-1.063l-0.333-1.017-0.326 1.012h-1.083l0.863 0.626zM15.119 7.615l0.863-0.626 0.863 0.626-0.326-1.012 0.863-0.626h-1.063l-0.326-1.012-0.326 1.012h-1.063l0.863 0.626z"></path>
</svg>
