<!-- Generated by IcoMoon.io -->
<svg version="1.1" xmlns="http://www.w3.org/2000/svg" width="32" height="32" viewBox="0 0 32 32">
<title>country-fr</title>
<path fill="#f6f6f6" d="M0.469 12.146c1.787-7.016 8.050-12.123 15.505-12.123 8.824 0 15.977 7.153 15.977 15.977s-7.153 15.977-15.977 15.977c-1.363 0-2.687-0.171-3.95-0.492l0.111 0.024c-7.022-1.79-12.134-8.059-12.134-15.521 0-1.363 0.171-2.688 0.492-3.951l-0.024 0.111z"></path>
<path fill="#24356b" d="M10.631 0.925c-6.248 2.271-10.631 8.157-10.631 15.066s4.382 12.796 10.519 15.030l0.111 0.035z"></path>
<path fill="#e52a18" d="M21.371 0.933v30.11c6.247-2.266 10.629-8.149 10.629-15.054s-4.382-12.789-10.517-15.020l-0.111-0.035z"></path>
</svg>
