<!-- Generated by IcoMoon.io -->
<svg version="1.1" xmlns="http://www.w3.org/2000/svg" width="32" height="32" viewBox="0 0 32 32">
<title>coupon</title>
<path d="M0.371 5.622c-0.213 0.047-0.371 0.234-0.371 0.459 0 0.005 0 0.010 0 0.014v-0.001 7.077c0 0.003 0 0.005 0 0.008 0 0.254 0.204 0.461 0.457 0.464h0.915c1.27 0.043 2.282 1.083 2.282 2.359s-1.013 2.315-2.278 2.359h-0.919c-0.254 0.004-0.457 0.21-0.457 0.465 0 0.003 0 0.005 0 0.007v-0.001 7.077c0 0.003 0 0.005 0 0.008 0 0.254 0.204 0.461 0.457 0.465h31.085c0.254-0.004 0.457-0.21 0.457-0.465 0-0.004 0-0.007 0-0.011v0.001-7.077c0-0.003 0-0.005 0-0.008 0-0.254-0.204-0.461-0.457-0.465h-0.915c-1.27-0.043-2.282-1.083-2.282-2.359s1.013-2.315 2.278-2.359h0.918c0.254-0.004 0.457-0.21 0.457-0.464 0-0.003 0-0.005 0-0.007v0.001-7.076c0-0.002 0-0.004 0-0.006 0-0.254-0.204-0.461-0.457-0.465h-31.085c-0.013-0.001-0.028-0.002-0.043-0.002s-0.030 0.001-0.045 0.002h0.002zM0.914 6.565h30.171v6.133h-0.457c-1.784 0.052-3.211 1.51-3.211 3.302s1.427 3.251 3.206 3.302h0.462v6.133h-30.171v-6.135h0.457c1.784-0.052 3.211-1.51 3.211-3.302s-1.427-3.251-3.206-3.302h-0.462zM8.6 12.226c-0.236 0.027-0.417 0.226-0.417 0.466 0 0.018 0.001 0.036 0.003 0.055v-0.002c0.019 0.241 0.219 0.429 0.463 0.429 0.013 0 0.027-0.001 0.040-0.002h14.626c0.252-0.011 0.452-0.218 0.452-0.472s-0.2-0.461-0.451-0.472h-14.629c-0.019-0.003-0.042-0.005-0.065-0.005-0.007 0-0.014 0-0.021 0.001h0.001zM8.6 15.529c-0.236 0.027-0.417 0.226-0.417 0.466 0 0.018 0.001 0.036 0.003 0.055v-0.002c0.019 0.241 0.219 0.429 0.463 0.429 0.013 0 0.027-0.001 0.040-0.002h8.183c0.252-0.011 0.452-0.218 0.452-0.472s-0.2-0.461-0.451-0.472h-8.187c-0.019-0.003-0.042-0.005-0.065-0.005-0.007 0-0.014 0-0.021 0.001h0.001zM8.6 18.831c-0.236 0.027-0.417 0.226-0.417 0.466 0 0.018 0.001 0.036 0.003 0.055v-0.002c0.019 0.241 0.219 0.429 0.463 0.429 0.013 0 0.027-0.001 0.040-0.002h14.626c0.252-0.011 0.452-0.218 0.452-0.472s-0.2-0.461-0.451-0.472h-14.629c-0.021-0.003-0.045-0.005-0.069-0.005-0.006 0-0.011 0-0.017 0h0.001z"></path>
</svg>
