<!-- Generated by IcoMoon.io -->
<svg version="1.1" xmlns="http://www.w3.org/2000/svg" width="32" height="32" viewBox="0 0 32 32">
<title>geo</title>
<path d="M15.999 32l-0.578-1.063c-0.377-0.592-9.254-15.925-9.254-21.104 0-5.43 4.402-9.833 9.833-9.833s9.833 4.402 9.833 9.833v0c0 5.179-8.905 20.512-9.254 21.104zM15.999 1.346c-4.684 0.008-8.48 3.803-8.488 8.487v0.001c0 4.103 6.483 15.912 8.488 19.463 2.004-3.551 8.488-15.361 8.488-19.463-0.008-4.684-3.803-8.48-8.487-8.488h-0.001z"></path>
<path d="M15.999 14.461c-2.556 0-4.627-2.072-4.627-4.627s2.072-4.627 4.627-4.627c2.556 0 4.627 2.072 4.627 4.627v0c0 2.556-2.072 4.627-4.627 4.627v0zM15.999 6.565c-1.813 0-3.282 1.469-3.282 3.282s1.469 3.282 3.282 3.282c1.813 0 3.282-1.469 3.282-3.282 0-0.005 0-0.009 0-0.014v0.001c0 0 0 0 0 0 0-1.805-1.463-3.269-3.269-3.269-0.005 0-0.009 0-0.014 0h0.001z"></path>
</svg>
