<!-- Generated by IcoMoon.io -->
<svg version="1.1" xmlns="http://www.w3.org/2000/svg" width="32" height="32" viewBox="0 0 32 32">
<title>gift-card</title>
<path d="M29.334 5.855h-26.667c-0.018-0.001-0.039-0.001-0.060-0.001-1.415 0-2.567 1.127-2.607 2.533v15.221c0.039 1.409 1.191 2.537 2.607 2.537 0.021 0 0.042 0 0.063-0.001h26.664c0.018 0.001 0.039 0.001 0.060 0.001 1.415 0 2.567-1.127 2.607-2.533v-15.221c-0.039-1.409-1.191-2.537-2.607-2.537-0.021 0-0.042 0-0.063 0.001h0.003zM30.935 8.391v6.594h-7.449c1.465-0.843 2.566-2.178 3.090-3.774l0.013-0.048c0.046-0.146 0.072-0.314 0.072-0.489 0-0.495-0.211-0.939-0.548-1.25l-0.001-0.001c-0.342-0.325-0.805-0.524-1.315-0.524-0.183 0-0.36 0.025-0.527 0.074l0.013-0.003c-1.693 0.479-3.090 1.53-4.003 2.927l-0.017 0.027v-5.053h9.067c0.012-0.001 0.027-0.001 0.041-0.001 0.849 0 1.54 0.676 1.564 1.519v0.002zM20.291 14.96c0.234-2.439 1.969-4.417 4.26-5.009l0.040-0.009c0.062-0.018 0.133-0.029 0.207-0.029v0c0.217 0.003 0.414 0.089 0.559 0.23v0c0.146 0.13 0.236 0.318 0.236 0.528 0 0.072-0.011 0.143-0.031 0.208l0.001-0.005c-0.746 2.291-2.799 3.943-5.257 4.085l-0.016 0.001zM1.067 8.391c0.024-0.845 0.715-1.521 1.563-1.521 0.013 0 0.025 0 0.037 0.001h16.531v5.054c-0.929-1.423-2.326-2.475-3.97-2.941l-0.049-0.012c-0.155-0.045-0.332-0.072-0.516-0.072-0.509 0-0.971 0.2-1.312 0.525l0.001-0.001c-0.339 0.311-0.55 0.756-0.55 1.25 0 0.174 0.026 0.342 0.075 0.501l-0.003-0.012c0.538 1.645 1.639 2.98 3.071 3.805l0.033 0.017h-14.911zM19.173 14.963c-2.476-0.142-4.531-1.796-5.265-4.047l-0.011-0.042c-0.019-0.061-0.030-0.131-0.030-0.204 0-0.21 0.091-0.398 0.236-0.527l0.001-0.001c0.144-0.14 0.341-0.227 0.559-0.227 0.075 0 0.148 0.010 0.217 0.030l-0.006-0.001c2.333 0.599 4.069 2.576 4.302 4.992l0.002 0.023zM1.067 23.608v-7.608h17.382l-3.357 3.193c-0.096 0.090-0.156 0.217-0.156 0.358s0.060 0.269 0.155 0.358v0c0.099 0.092 0.231 0.148 0.377 0.148s0.278-0.056 0.377-0.148h-0.001l3.355-3.191v8.412h-16.534c-0.011 0-0.023 0.001-0.035 0.001-0.849 0-1.54-0.677-1.563-1.52v-0.002zM29.334 25.13h-9.067v-8.412l3.355 3.192c0.099 0.092 0.231 0.148 0.377 0.148s0.278-0.056 0.377-0.148h-0.001c0.096-0.090 0.156-0.217 0.156-0.358s-0.060-0.269-0.155-0.358v0l-3.357-3.193h9.916v7.608c-0.024 0.845-0.715 1.521-1.564 1.521-0.013 0-0.027 0-0.040-0.001h0.002z"></path>
<path d="M4.8 20.059h5.333c0.007 0.001 0.015 0.001 0.023 0.001 0.28 0 0.508-0.228 0.508-0.508s-0.228-0.508-0.508-0.508c-0.008 0-0.016 0-0.024 0.001h-5.332c-0.007-0.001-0.015-0.001-0.023-0.001-0.28 0-0.508 0.228-0.508 0.508s0.228 0.508 0.508 0.508c0.008 0 0.016 0 0.024-0.001h-0.001z"></path>
<path d="M14.401 21.073h-9.6c-0.007-0.001-0.015-0.001-0.023-0.001-0.28 0-0.508 0.228-0.508 0.508s0.228 0.508 0.508 0.508c0.008 0 0.016 0 0.024-0.001h9.599c0.007 0.001 0.015 0.001 0.023 0.001 0.28 0 0.508-0.228 0.508-0.508s-0.228-0.508-0.508-0.508c-0.008 0-0.016 0-0.024 0.001h0.001z"></path>
</svg>
