<!-- Generated by IcoMoon.io -->
<svg version="1.1" xmlns="http://www.w3.org/2000/svg" width="32" height="32" viewBox="0 0 32 32">
<title>lock</title>
<path d="M26.15 15.021v12.7c0 1.104-0.896 2-2 2v0h-16.38c-1.104 0-2-0.896-2-2v0-12.7c-0.003-0.037-0.004-0.081-0.004-0.124 0-1.038 0.842-1.88 1.88-1.88 0.044 0 0.087 0.002 0.13 0.004h16.453c1.104 0 2 0.896 2 2v0zM9.57 8.661c0 0 0 0 0-0.001 0-3.512 2.848-6.36 6.36-6.36 0.028 0 0.056 0 0.084 0.001h-0.004c0.006 0 0.013 0 0.020 0 3.512 0 6.36 2.848 6.36 6.36 0 0 0 0 0 0v0 2.16h-12.82zM16.010 0.001c-0.006 0-0.013 0-0.020 0-4.783 0-8.66 3.877-8.66 8.66 0 0 0 0 0 0v0 2.179c-2.121 0.22-3.759 1.998-3.759 4.158 0 0.007 0 0.015 0 0.022v-0.001 12.7c-0.001 0.024-0.001 0.052-0.001 0.080 0 2.319 1.88 4.2 4.2 4.2 0 0 0.001 0 0.001 0h16.459c2.319 0 4.2-1.88 4.2-4.2v0-12.78c0-0.006 0-0.014 0-0.021 0-2.161-1.639-3.938-3.742-4.157l-0.018-0.002v-2.179c0 0 0 0 0 0 0-4.783-3.877-8.66-8.66-8.66-0.007 0-0.014 0-0.021 0h0.001z"></path>
<path d="M16.010 21.26c-0.006 0-0.013 0-0.020 0-0.409 0-0.74-0.331-0.74-0.74s0.331-0.74 0.74-0.74c0.409 0 0.74 0.331 0.74 0.74v0c0 0 0 0 0 0 0 0.402-0.32 0.728-0.719 0.74h-0.001zM16.010 17.501c-0.006 0-0.013 0-0.020 0-1.668 0-3.020 1.352-3.020 3.020 0 0 0 0 0 0v0c0.010 1.255 0.773 2.329 1.86 2.792l0.020 0.008v3.6c0 0 0 0 0 0 0 0.629 0.511 1.14 1.14 1.14 0.007 0 0.014 0 0.021 0h-0.001c0.629 0 1.14-0.511 1.14-1.14v0 0-3.6c1.123-0.464 1.899-1.55 1.899-2.818 0-0.427-0.088-0.833-0.246-1.202l0.008 0.020c-0.467-1.11-1.543-1.875-2.799-1.88h-0.001z"></path>
</svg>
