<!-- Generated by IcoMoon.io -->
<svg version="1.1" xmlns="http://www.w3.org/2000/svg" width="32" height="32" viewBox="0 0 32 32">
<title>pinterest</title>
<path d="M24.506 32h-17.012c-4.136-0.007-7.487-3.358-7.494-7.493v-17.013c0.007-4.136 3.358-7.487 7.493-7.494h17.013c4.136 0.007 7.487 3.358 7.494 7.493v17.013c-0.007 4.136-3.358 7.487-7.493 7.494h-0.001zM7.494 1.745c-3.159 0.039-5.709 2.589-5.748 5.745v17.016c0.039 3.159 2.589 5.709 5.745 5.748h17.016c3.159-0.039 5.709-2.589 5.748-5.745v-17.016c-0.039-3.159-2.589-5.709-5.745-5.748h-0.004z"></path>
<path d="M15.767 7.587c-3.274 0.327-5.845 2.938-6.108 6.202l-0.002 0.024c-0.081 2.118 0.524 3.712 2.537 4.154 0.873-1.548-0.279-1.885-0.465-3.002-0.733-4.573 5.271-7.692 8.425-4.492 2.176 2.211 0.745 9.007-2.769 8.297s1.641-6.086-1.036-7.145c-2.188-0.861-3.351 2.641-2.327 4.375-0.605 3.002-1.908 5.818-1.385 9.577 1.722-1.245 2.327-3.631 2.769-6.109 0.66 0.588 1.488 1.001 2.403 1.16l0.029 0.004c4.049 0.314 6.319-4.049 5.76-8.076-0.489-3.561-4.049-5.388-7.843-4.957z"></path>
</svg>
