<!-- Generated by IcoMoon.io -->
<svg version="1.1" xmlns="http://www.w3.org/2000/svg" width="32" height="32" viewBox="0 0 32 32">
<title>return</title>
<path d="M25.312 17.417v1.096l-4.534 2.192v-1.097zM10.951 5.779l-1.28-3.664c3.766 2.506 6.214 6.732 6.214 11.531 0 0.25-0.007 0.498-0.020 0.745l0.001-0.034h1.133c0.008-0.185 0.013-0.402 0.013-0.62 0-5.232-2.651-9.847-6.684-12.57l-0.054-0.034h4.042v-1.133h-6.573l2.153 6.12zM31.697 18.285c-0.105 0.111-0.252 0.182-0.415 0.189h-0.001c-0.013 0.002-0.027 0.003-0.042 0.003-0.054 0-0.105-0.015-0.149-0.042l0.001 0.001-2.343-0.907v8.426l-11.902 6.045-11.901-6.045v-5.214l-4.458-2.38c-0.148-0.078-0.257-0.212-0.301-0.374l-0.001-0.004c-0.009-0.039-0.014-0.084-0.014-0.129 0-0.12 0.034-0.232 0.093-0.326l-0.002 0.003 4.005-5.667c0.038-0.078 0.114-0.114 0.189-0.189l4.985-2.682 0.529 0.982-4.231 2.305 10.919 5.743 10.655-5.327-7.103-4.27 0.567-0.982 7.633 4.572c0.038 0.038 0.078 0.038 0.114 0.078l0.151 0.227 3.060 5.289c0.059 0.088 0.094 0.196 0.094 0.312 0 0.14-0.051 0.267-0.134 0.366l0.001-0.001zM1.585 17.68l4.381 2.344h0.078v0.038l6.231 3.325 4.118-4.27-11.528-6.045zM6.044 25.277l10.204 5.177v-9.561l-3.438 3.627c-0.105 0.109-0.253 0.177-0.416 0.177-0.096 0-0.187-0.023-0.267-0.065l0.003 0.002-6.085-3.249v3.894zM27.58 17.078v0-3.214l-10.243 5.103s0.038 0.34 0.038 0.491v10.996l10.204-5.176zM29.956 16.812l-1.284-2.192v1.7z"></path>
</svg>
