<!-- Generated by IcoMoon.io -->
<svg version="1.1" xmlns="http://www.w3.org/2000/svg" width="32" height="32" viewBox="0 0 32 32">
<title>sale</title>
<path d="M22.218 8.379c0.13 0 0.188 0 0.261 0 0 0.007 0 0.014 0 0.022 0 0.341-0.157 0.646-0.404 0.845l-0.002 0.002c-0.238 0.217-0.556 0.349-0.904 0.349s-0.666-0.133-0.906-0.35l0.001 0.001c-0.241-0.213-0.391-0.523-0.391-0.868 0 0 0-0.001 0-0.001v0c-0.001-0.018-0.002-0.039-0.002-0.060 0-0.327 0.153-0.618 0.39-0.807l0.003-0.002c0.21-0.247 0.521-0.404 0.868-0.405v0c0.052-0.017 0.111-0.026 0.173-0.026s0.122 0.009 0.178 0.028l-0.004-0.001c0 0.202 0 0.405 0 0.608 0.119 0.352 0.422 0.611 0.79 0.665l0.005 0.001zM25.749 6.18l-0.535 7.020-14.72 14.735-8.902-8.829 14.72-14.735 7.035-0.507c0.1-0.017 0.215-0.027 0.333-0.027s0.233 0.010 0.345 0.029l-0.012-0.002c-0.874 0.445-1.567 1.138-2 1.986l-0.012 0.026c-0.237-0.077-0.511-0.122-0.795-0.122-0.701 0-1.339 0.272-1.812 0.716l0.002-0.002c-0.452 0.468-0.733 1.106-0.739 1.809v0.001c0 0.008 0 0.019 0 0.029 0 1.391 1.128 2.518 2.518 2.518 0.010 0 0.020 0 0.031 0h-0.002c0.009 0 0.019 0 0.029 0 1.391 0 2.518-1.128 2.518-2.518 0-0.010 0-0.020 0-0.031v0.002c0-0.002 0-0.003 0-0.005 0-0.643-0.229-1.234-0.611-1.693l0.003 0.004c0.473-0.859 1.245-1.504 2.173-1.802l0.027-0.008c0.303 0.323 0.49 0.759 0.49 1.238 0 0.074-0.004 0.147-0.013 0.218l0.001-0.008zM26.834 3.17c-0.152-0.017-0.328-0.027-0.507-0.027s-0.354 0.009-0.528 0.029l0.021-0.002c-0.596-0.479-1.362-0.769-2.195-0.769-0.119 0-0.237 0.006-0.353 0.018l0.014-0.001-7.237 0.608c-0.003 0-0.005 0-0.008 0-0.163 0-0.308 0.079-0.397 0.201l-0.001 0.002-15.458 15.4c-0.116 0.12-0.188 0.283-0.188 0.463s0.071 0.343 0.188 0.463v0l9.843 9.843c0.117 0.123 0.28 0.2 0.462 0.202h0.001c0.002 0 0.003 0 0.005 0 0.186 0 0.354-0.077 0.472-0.202l15.401-15.401c0.11-0.098 0.185-0.235 0.202-0.388v-0.003l0.535-7.237c0.006-0.077 0.009-0.166 0.009-0.255 0-0.563-0.126-1.098-0.351-1.577l0.009 0.023c0.099-0.009 0.212-0.014 0.328-0.014 1.866 0 3.405 1.402 3.621 3.211l0.002 0.017c-0.001 0.009-0.001 0.020-0.001 0.031 0 0.337 0.261 0.613 0.592 0.636h0.002c0.009 0.001 0.020 0.001 0.031 0.001 0.34 0 0.619-0.26 0.648-0.592v-0.118c-0.229-2.567-2.369-4.563-4.975-4.563-0.068 0-0.135 0.002-0.202 0.004h0.009z"></path>
<path d="M9.090 18.092c-0.144 0.127-0.336 0.205-0.544 0.205-0.022 0-0.044-0.001-0.066-0.003h0.003c-0.245-0.020-0.456-0.145-0.592-0.331l-0.002-0.003c-0.154-0.167-0.269-0.371-0.331-0.597l-0.003-0.010c0.006-0.182 0.082-0.344 0.202-0.463v0c0.143-0.127 0.331-0.205 0.538-0.205 0.020 0 0.039 0.001 0.058 0.002h-0.003c0.018-0.002 0.038-0.002 0.059-0.002 0.211 0 0.403 0.077 0.551 0.206l-0.001-0.001c0.154 0.167 0.269 0.371 0.331 0.597l0.003 0.010c0 0.002 0 0.003 0 0.005 0 0.204-0.076 0.39-0.203 0.531l0.001-0.001zM8.352 15.284c-0.045-0.004-0.098-0.006-0.15-0.006-0.507 0-0.966 0.207-1.297 0.541v0c-0.337 0.313-0.546 0.758-0.546 1.253 0 0.069 0.004 0.137 0.012 0.203l-0.001-0.008c0.031 0.571 0.28 1.079 0.665 1.447l0.001 0.001c0.375 0.378 0.878 0.628 1.438 0.68l0.009 0.001c0.554-0.003 1.060-0.205 1.451-0.538l-0.003 0.003c0.337-0.313 0.546-0.758 0.546-1.253 0-0.069-0.004-0.137-0.012-0.203l0.001 0.008c-0.028-0.572-0.278-1.081-0.665-1.447l-0.001-0.001c-0.373-0.377-0.878-0.625-1.44-0.665l-0.008-0.001z"></path>
<path d="M10.624 12.548l1.737 11.304 1.216-1.202-1.737-11.391z"></path>
<path d="M16.587 18.164c-0.144 0.118-0.329 0.19-0.531 0.19-0.273 0-0.516-0.13-0.669-0.332l-0.002-0.002c-0.156-0.161-0.271-0.361-0.331-0.584l-0.003-0.009c-0.001-0.014-0.002-0.032-0.002-0.049 0-0.19 0.078-0.363 0.204-0.486v0c0.144-0.13 0.334-0.21 0.544-0.21 0.037 0 0.075 0.003 0.111 0.008l-0.004-0.001c0.251 0.013 0.469 0.14 0.606 0.331l0.002 0.003c0.154 0.167 0.269 0.371 0.331 0.597l0.003 0.010c-0.004 0.205-0.080 0.392-0.204 0.537l0.001-0.001zM15.776 15.443c-0.553 0.006-1.058 0.207-1.451 0.538l0.003-0.003c-0.337 0.313-0.546 0.758-0.546 1.253 0 0.069 0.004 0.137 0.012 0.203l-0.001-0.008c0.040 0.572 0.293 1.079 0.679 1.447l0.001 0.001c0.372 0.379 0.878 0.626 1.441 0.665h0.007c0.017 0.001 0.037 0.001 0.057 0.001 0.536 0 1.024-0.204 1.392-0.538l-0.002 0.002c0.337-0.306 0.549-0.746 0.549-1.236 0-0.075-0.005-0.148-0.014-0.22l0.001 0.009c-0.025-0.573-0.275-1.083-0.665-1.447l-0.001-0.001c-0.373-0.377-0.878-0.625-1.44-0.665l-0.008-0.001z"></path>
</svg>
