<svg xmlns="http://www.w3.org/2000/svg" viewBox="0 0 24 24">
<title>scissor</title>
<path d="M16.1677,2.75c.6348,0,1.1715.869,1.1715,1.8972s-.536,1.8973-1.1715,1.8973-1.1714-.869-1.1714-1.8973S15.5323,2.75,16.1677,2.75M7.8307,6.5441c-.6347,0-1.1714-.869-1.1714-1.8973S7.1952,2.75,7.8307,2.75s1.1714.869,1.1714,1.8972S8.4662,6.5441,7.8307,6.5441m6.7483.3644c.121-.3193.23-.3284.3308-.2511a1.6477,1.6477,0,0,0,1.2579.6347c1.0765,0,1.92-1.1623,1.92-2.6461s-.8422-2.6452-1.92-2.6452S14.2483,3.1622,14.2483,4.646v.0766h-.0046a3.3234,3.3234,0,0,1,0,.9777L13.0952,8.3334A7.9519,7.9519,0,0,1,12,9.9649a7.9313,7.9313,0,0,1-1.0956-1.6315L9.7563,5.6973a3.3428,3.3428,0,0,1,0-.9755H9.7517V4.6453C9.7517,3.1615,8.91,2,7.8323,2s-1.92,1.1615-1.92,2.6453.8422,2.646,1.92,2.646a1.6452,1.6452,0,0,0,1.2571-.6332c.1026-.0765.2106-.0712.3323.25l.0046-.0091,1.78,4.0808a3.924,3.924,0,0,0-.418.6891L8.1309,17.7614A4.9074,4.9074,0,0,0,7.9892,22l4.0127-9.1991L16.0139,22a4.9047,4.9047,0,0,0-.1417-4.2386l-2.6575-6.0929a3.8928,3.8928,0,0,0-.418-.6891l1.78-4.0808Z"></path>
</svg>