<!-- Generated by IcoMoon.io -->
<svg version="1.1" xmlns="http://www.w3.org/2000/svg" width="32" height="32" viewBox="0 0 32 32">
<title>shop</title>
<path d="M31.773 11.871c-0.42-2.68-2.154-5.57-4.844-7.987-0.559-0.494-1.254-0.847-2.023-0.994l-0.027-0.004h-17.708c-0.8 0.132-1.499 0.488-2.052 1.001l0.003-0.002c-2.68 2.418-4.379 5.254-4.834 7.987-0.022 0.103-0.034 0.223-0.034 0.344 0 0.481 0.193 0.916 0.508 1.233v0c0.548 0.594 1.297 0.997 2.138 1.102l0.018 0.002v14.565h26.274v-14.617c0.851-0.133 1.592-0.529 2.153-1.103l0.001-0.001c0.28-0.333 0.45-0.768 0.45-1.241 0-0.1-0.008-0.198-0.023-0.294l0.002 0.011zM21.674 3.41c1.765 2.375 2.954 5.278 3.303 8.434l0.008 0.079c0.008 0.057 0.012 0.123 0.012 0.191 0 0.415-0.168 0.79-0.441 1.062v0c-0.599 0.545-1.399 0.878-2.277 0.878-0.047 0-0.093-0.001-0.138-0.002h0.007c-1.577 0-2.733-0.946-2.785-2.207-0.098-3.078-0.494-6.011-1.163-8.839l0.060 0.299h3.416zM14.317 3.41h3.416c0.648 2.538 1.047 5.465 1.103 8.475l0.001 0.037c0 0.008 0 0.018 0 0.027 0 0.502-0.201 0.956-0.526 1.288v0c-0.581 0.543-1.363 0.877-2.223 0.877-0.031 0-0.062-0.001-0.092-0.002h0.004c-0.015 0-0.033 0-0.052 0-0.873 0-1.667-0.333-2.263-0.878l0.002 0.002c-0.325-0.332-0.526-0.786-0.526-1.288 0-0.009 0-0.018 0-0.027v0.002c0.101-3.069 0.517-5.991 1.217-8.8l-0.061 0.288zM10.376 3.41h3.416c-0.62 2.526-1.018 5.45-1.103 8.454l-0.002 0.059c-0.053 1.261-1.208 2.207-2.785 2.207v0c-0.026 0.001-0.056 0.001-0.087 0.001-0.908 0-1.732-0.365-2.331-0.956v0c-0.278-0.284-0.45-0.673-0.45-1.103 0-0.034 0.001-0.068 0.003-0.102v0.005c0.33-3.259 1.533-6.186 3.368-8.608l-0.031 0.042zM1.181 13.044c-0.237-0.25-0.382-0.588-0.382-0.961 0-0.069 0.005-0.137 0.014-0.203l-0.001 0.008c0.713-3.088 2.373-5.713 4.654-7.619l0.022-0.018c0.473-0.436 1.068-0.746 1.729-0.873l0.022-0.003h2.523c-1.724 2.37-2.89 5.251-3.25 8.377l-0.008 0.082c-0.202 1.268-1.288 2.224-2.596 2.224-0.072 0-0.144-0.003-0.216-0.008l0.009 0.001c-0.073 0.006-0.158 0.009-0.243 0.009-0.897 0-1.706-0.377-2.278-0.98l-0.002-0.002zM13.004 28.502h-6.411v-10.947h6.411zM28.619 28.502h-15.090v-11.481h-7.365v11.516h-2.628v-13.925h0.21c0.048 0.002 0.104 0.004 0.162 0.004 1.206 0 2.259-0.653 2.825-1.626l0.008-0.016c0.109 0.199 0.231 0.372 0.37 0.528l-0.003-0.002c0.688 0.683 1.636 1.105 2.683 1.105 0.036 0 0.072-0.001 0.107-0.002h-0.005c0.063 0.004 0.137 0.007 0.213 0.007 1.205 0 2.258-0.651 2.827-1.62l0.008-0.015c0.116 0.222 0.256 0.413 0.421 0.578v0c0.679 0.62 1.587 1 2.583 1 0.034 0 0.068-0.001 0.103-0.002h-0.005c0.031 0.001 0.067 0.002 0.104 0.002 0.994 0 1.899-0.38 2.579-1.003l-0.003 0.002c0.171-0.162 0.312-0.353 0.415-0.567l0.005-0.012c0.583 0.985 1.641 1.635 2.85 1.635 0.073 0 0.144-0.002 0.216-0.007l-0.010 0.001c0.040 0.002 0.087 0.002 0.134 0.002 1.037 0 1.975-0.423 2.651-1.106v0c0.148-0.149 0.271-0.323 0.363-0.514l0.005-0.012c0.569 0.983 1.616 1.634 2.814 1.634 0.063 0 0.127-0.002 0.19-0.006h0.202v13.925zM30.932 13.044c-0.632 0.623-1.5 1.008-2.458 1.008-0.023 0-0.045 0-0.067-0.001h0.003c-0.060 0.005-0.129 0.008-0.199 0.008-1.305 0-2.388-0.952-2.593-2.199l-0.002-0.015c-0.427-3.235-1.604-6.133-3.35-8.599l0.040 0.060h2.523c0.686 0.118 1.284 0.43 1.753 0.877l-0.002-0.002c2.313 1.933 3.978 4.569 4.668 7.579l0.018 0.093c0.008 0.063 0.012 0.134 0.012 0.207 0 0.377-0.123 0.724-0.332 1.005l0.003-0.004zM18.258 24.175h7.357v-7.155h-7.357c-0.052 0-0.052 7.155 0 7.155zM18.784 17.554h6.253v6.13h-6.253zM11.007 24.123c0.714-0.015 1.288-0.598 1.288-1.313 0-0.726-0.588-1.313-1.313-1.313s-1.313 0.588-1.313 1.313v0c-0.001 0.013-0.001 0.029-0.001 0.044 0 0.686 0.544 1.245 1.225 1.269h0.002zM11.007 22.021c0.435 0 0.788 0.353 0.788 0.788s-0.353 0.788-0.788 0.788c-0.435 0-0.788-0.353-0.788-0.788v0c0-0.005 0-0.012 0-0.017 0-0.423 0.34-0.766 0.762-0.771h0.001z"></path>
<path d="M29.364 29.334h-26.703v-14.591c-0.836-0.154-1.558-0.565-2.1-1.145l-0.002-0.002c-0.346-0.358-0.559-0.848-0.559-1.386 0-0.129 0.013-0.256 0.036-0.378l-0.002 0.012c0.464-2.776 2.207-5.675 4.939-8.127 0.582-0.536 1.32-0.911 2.138-1.048l0.024-0.003h17.753c0.848 0.158 1.591 0.53 2.195 1.056l-0.006-0.005c2.733 2.453 4.484 5.386 4.904 8.119v0c0.011 0.082 0.017 0.177 0.017 0.273 0 0.55-0.21 1.052-0.553 1.428l0.002-0.002c-0.548 0.568-1.264 0.973-2.068 1.134l-0.025 0.004zM3.134 28.94h25.801v-14.626h0.184c0.803-0.127 1.501-0.502 2.031-1.042l0.001-0.001c0.267-0.297 0.429-0.69 0.429-1.123 0-0.086-0.007-0.171-0.019-0.253l0.001 0.009c-0.412-2.628-2.154-5.5-4.773-7.882-0.212-0.177-0.451-0.337-0.704-0.471l-0.023-0.011c0.247 0.155 0.463 0.323 0.658 0.51l-0.002-0.002c2.335 1.967 4.019 4.641 4.719 7.69l0.018 0.096c0.013 0.083 0.021 0.178 0.021 0.276 0 0.418-0.139 0.803-0.374 1.113l0.003-0.004c-0.686 0.656-1.618 1.060-2.643 1.060-0.012 0-0.026 0-0.038 0h0.002c-0.069 0.006-0.15 0.010-0.232 0.010-1.398 0-2.556-1.027-2.762-2.368l-0.002-0.016c-0.433-3.213-1.606-6.089-3.342-8.537l0.040 0.059-0.202-0.324v0.237c1.761 2.394 2.948 5.314 3.303 8.485l0.008 0.081c0.005 0.051 0.008 0.109 0.008 0.169 0 0.472-0.187 0.901-0.49 1.216l0.001-0.001c-0.653 0.624-1.54 1.009-2.517 1.009-0.039 0-0.078-0.001-0.117-0.002h0.006c-1.673 0-2.934-1.016-2.995-2.417-0.093-3.070-0.484-5.997-1.145-8.821l0.059 0.299-0.062-0.254h-10.816c-0.735 0.132-1.377 0.466-1.885 0.939l0.003-0.002c-2.628 2.408-4.379 5.194-4.773 7.882-0.018 0.088-0.028 0.191-0.028 0.295 0 0.418 0.16 0.797 0.423 1.081l-0.001-0.001c0.52 0.552 1.22 0.929 2.005 1.040l0.018 0.002h0.192zM22.725 3.542c1.591 2.362 2.693 5.18 3.099 8.22l0.011 0.1c0.168 1.151 1.148 2.024 2.333 2.024 0.076 0 0.152-0.003 0.226-0.011l-0.009 0.001h0.044c0.023 0.001 0.050 0.001 0.078 0.001 0.873 0 1.667-0.333 2.263-0.879l-0.003 0.002c0.172-0.231 0.277-0.523 0.277-0.838 0-0.069-0.005-0.137-0.014-0.203l0.001 0.008c-0.703-3.047-2.339-5.637-4.585-7.523l-0.021-0.018c-0.427-0.441-0.984-0.753-1.61-0.873l-0.019-0.003zM18.53 3.542c0.582 2.469 0.96 5.334 1.049 8.271l0.002 0.066c0.044 1.156 1.13 1.997 2.566 1.997 0.020 0.001 0.043 0.001 0.066 0.001 0.853 0 1.629-0.333 2.204-0.878l-0.002 0.002c0.222-0.228 0.358-0.54 0.358-0.884 0-0.049-0.003-0.098-0.008-0.147l0.001 0.006c-0.346-3.204-1.519-6.081-3.299-8.48l0.033 0.047zM28.619 28.756h-15.309v-11.516h-7.006v11.516h-3.030v-14.363h0.429c0.051 0.003 0.111 0.005 0.171 0.005 1.121 0 2.1-0.609 2.624-1.514l0.008-0.014 0.192-0.333 0.192 0.333c0.103 0.186 0.216 0.347 0.344 0.493l-0.003-0.003c0.642 0.635 1.525 1.027 2.5 1.027 0.045 0 0.089-0.001 0.134-0.002h-0.007c0.068 0.005 0.146 0.008 0.225 0.008 1.122 0 2.103-0.606 2.632-1.509l0.008-0.014 0.202-0.35 0.184 0.359c0.105 0.201 0.23 0.374 0.378 0.526l-0.001-0.001c0.635 0.577 1.482 0.93 2.411 0.93 0.039 0 0.078-0.001 0.117-0.002h-0.006c0.034 0.001 0.075 0.002 0.115 0.002 0.935 0 1.788-0.357 2.428-0.942l-0.003 0.002c0.142-0.149 0.265-0.319 0.362-0.504l0.006-0.012 0.184-0.359 0.202 0.35c0.539 0.917 1.521 1.522 2.643 1.522 0.072 0 0.142-0.002 0.212-0.008l-0.009 0.001c0.042 0.002 0.091 0.002 0.14 0.002 0.973 0 1.853-0.396 2.487-1.036v0c0.128-0.133 0.236-0.286 0.319-0.453l0.005-0.011 0.184-0.385 0.202 0.368c0.539 0.915 1.52 1.519 2.642 1.519 0.057 0 0.113-0.002 0.168-0.004h0.43v14.144h-0.114zM13.731 28.318h14.565v-13.496c-0.058 0.003-0.128 0.006-0.197 0.006-1.143 0-2.154-0.561-2.774-1.423l-0.007-0.010c-0.069 0.098-0.144 0.184-0.227 0.262l-0.001 0.001c-0.725 0.721-1.724 1.167-2.828 1.167-0.040 0-0.081-0.001-0.121-0.002h0.006c-0.062 0.004-0.133 0.006-0.206 0.006-1.16 0-2.188-0.564-2.826-1.433l-0.007-0.010c-0.087 0.12-0.177 0.226-0.273 0.325l0.001-0.001c-0.719 0.658-1.682 1.061-2.738 1.061-0.035 0-0.070-0.001-0.105-0.002h0.005c-0.037 0.002-0.082 0.002-0.127 0.002-1.043 0-1.993-0.4-2.705-1.056l0.002 0.002c-0.094-0.101-0.183-0.209-0.265-0.323l-0.007-0.010c-0.644 0.879-1.673 1.443-2.833 1.443-0.078 0-0.156-0.002-0.233-0.008l0.011 0.001c-0.025 0.001-0.054 0.001-0.083 0.001-1.108 0-2.111-0.445-2.842-1.166l0.001 0.001c-0.074-0.082-0.146-0.17-0.213-0.262l-0.006-0.009c-0.644 0.882-1.674 1.448-2.837 1.448-0.053 0-0.105-0.001-0.157-0.003h0.007v13.487h2.189v-11.516h7.882zM13.206 28.756h-6.831v-11.386h6.849zM6.795 28.318h5.973v-10.51h-5.955zM25.817 24.395h-7.558c-0.254 0-0.254 0-0.254-3.792 0-0.876 0-1.795 0-2.461 0-1.34 0-1.34 0.245-1.34h7.575zM18.425 23.956h7.006v-6.717h-7.006c0 1.008 0 5.71 0 6.717zM10.928 24.342h-0.053c-0.412-0.015-0.779-0.194-1.042-0.473l-0.001-0.001c-0.225-0.258-0.362-0.598-0.362-0.969 0-0.032 0.001-0.063 0.003-0.094v0.004c0.001-0.846 0.687-1.531 1.533-1.531s1.533 0.686 1.533 1.533c0 0.728-0.508 1.338-1.189 1.494l-0.010 0.002h-0.394zM10.543 21.829c-0.37 0.181-0.622 0.55-0.631 0.98v0.001c-0.001 0.014-0.001 0.030-0.001 0.046 0 0.556 0.432 1.012 0.978 1.048h0.117c0.605 0 1.095-0.49 1.095-1.095s-0.49-1.095-1.095-1.095v0c-0.007 0-0.014 0-0.022 0-0.148 0-0.287 0.032-0.413 0.090l0.006-0.003h0.429c0.556 0 1.008 0.451 1.008 1.008s-0.451 1.008-1.008 1.008v0c-0.543-0.017-0.975-0.462-0.975-1.007 0-0.373 0.203-0.7 0.506-0.873l0.005-0.003zM11.042 22.24c-0.005 0-0.012 0-0.018 0-0.305 0-0.552 0.247-0.552 0.552 0 0.003 0 0.007 0 0.009v-0.001c0 0.003 0 0.005 0 0.008 0 0.314 0.255 0.569 0.569 0.569s0.569-0.255 0.569-0.569c0-0.305-0.24-0.554-0.542-0.568h-0.002zM25.256 23.869h-6.691v-6.534h6.691zM19.003 23.431h5.815v-5.658h-5.815zM9.834 14.358c-0.971-0.002-1.852-0.389-2.497-1.017l0.001 0.001c-0.308-0.315-0.498-0.747-0.498-1.223 0-0.057 0.003-0.113 0.008-0.168l-0.001 0.007c0.328-3.299 1.538-6.266 3.386-8.724l-0.032 0.044 0.070-0.087h3.774v0.272c-0.613 2.513-1.008 5.422-1.093 8.409l-0.002 0.060c-0.062 1.401-1.323 2.417-3.004 2.417zM10.491 3.629c-1.736 2.333-2.891 5.194-3.2 8.303l-0.006 0.070c-0.003 0.036-0.005 0.077-0.005 0.118 0 0.355 0.138 0.677 0.365 0.916l-0.001-0.001c0.563 0.543 1.33 0.877 2.174 0.877 0.027 0 0.053 0 0.080-0.001h-0.004c1.445 0 2.531-0.876 2.575-1.997 0.081-2.979 0.459-5.826 1.108-8.57l-0.057 0.284zM16.122 14.305h-0.132c-0.032 0.001-0.069 0.002-0.107 0.002-0.899 0-1.722-0.333-2.349-0.881l0.004 0.003c-0.368-0.373-0.596-0.886-0.596-1.452 0-0.010 0-0.020 0-0.030v0.002c0.097-3.095 0.516-6.044 1.226-8.878l-0.061 0.287v-0.167h3.766v0.167c0.651 2.553 1.053 5.498 1.112 8.526l0.001 0.039c0 0.011 0 0.023 0 0.036 0 0.559-0.224 1.067-0.588 1.436v0c-0.601 0.548-1.397 0.89-2.273 0.911h-0.004zM15.99 13.859c0.040 0.002 0.087 0.003 0.133 0.003 0.785 0 1.501-0.297 2.042-0.785l-0.003 0.002c0.282-0.286 0.456-0.679 0.456-1.113 0-0.012 0-0.024 0-0.037v0.002c-0.063-2.976-0.448-5.83-1.124-8.57l0.056 0.268h-3.065c-0.614 2.458-1.014 5.309-1.111 8.235l-0.002 0.068c0 0.009 0 0.020 0 0.032 0 0.439 0.178 0.837 0.464 1.125v0c0.544 0.48 1.263 0.773 2.051 0.773 0.037 0 0.072-0.001 0.108-0.002h-0.005zM3.405 14.252c-0.935-0.004-1.778-0.393-2.381-1.015l-0.001-0.001c-0.275-0.29-0.443-0.683-0.443-1.114 0-0.077 0.005-0.152 0.016-0.226l-0.001 0.008c0.718-3.16 2.408-5.847 4.734-7.803l0.022-0.018c0.496-0.46 1.117-0.792 1.805-0.941l0.026-0.005h2.995l-0.254 0.35c-1.699 2.342-2.849 5.187-3.207 8.273l-0.008 0.082c-0.203 1.37-1.372 2.41-2.783 2.41-0.084 0-0.167-0.003-0.25-0.011l0.011 0.001zM1.338 12.931c0.529 0.548 1.27 0.887 2.091 0.887 0.090 0 0.179-0.004 0.268-0.012l-0.012 0.001c0.081 0.010 0.175 0.015 0.27 0.015 1.194 0 2.183-0.879 2.356-2.025l0.002-0.013c0.342-3.108 1.419-5.911 3.053-8.304l-0.040 0.063h-2.102c-0.622 0.154-1.158 0.46-1.586 0.877l0.001-0.001c-2.271 1.911-3.908 4.51-4.589 7.474l-0.018 0.092c-0.007 0.047-0.010 0.1-0.010 0.154 0 0.308 0.121 0.586 0.318 0.793v-0.001z"></path>
</svg>
