<!-- Generated by IcoMoon.io -->
<svg version="1.1" xmlns="http://www.w3.org/2000/svg" width="32" height="32" viewBox="0 0 32 32">
<title>spinner</title>
<path d="M2.146 11.94l-2.146-0.575 1.54 5.808 4.239-4.259-1.889-0.507c1.949-6.591 8.793-10.452 15.454-8.666 2.972 0.796 5.412 2.585 7.063 4.914l-0.016-0.022 1.459-1.064c-1.866-2.629-4.65-4.666-8.039-5.575-7.624-2.044-15.459 2.39-17.659 9.929l-0.005 0.016z"></path>
<path d="M28.323 19.288c-1.817 6.768-8.774 10.783-15.544 8.969-3.318-0.89-5.974-3.014-7.608-5.747l0.002 0.003-1.567 0.939c1.866 3.113 4.901 5.537 8.689 6.553 7.739 2.075 15.695-2.512 17.778-10.247v-0.001l1.926 0.516-1.542-5.815-4.283 4.248z"></path>
</svg>
