<!-- Generated by IcoMoon.io -->
<svg version="1.1" xmlns="http://www.w3.org/2000/svg" width="171" height="32" viewBox="0 0 171 32">
<title>stars-empty</title>
<path fill="#b2b2b2" d="M16.772 0l4.021 12.261h12.8l-10.397 7.479 3.972 12.261-10.397-7.479-10.348 7.356 3.972-12.261-10.397-7.356h12.825z"></path>
<path fill="#b2b2b2" d="M51.102 0l4.021 12.261h12.8l-10.397 7.528 3.972 12.261-10.397-7.528-10.348 7.528 3.972-12.261-10.397-7.528h12.825z"></path>
<path fill="#b2b2b2" d="M85.431 0l4.021 12.261h12.8l-10.397 7.479 3.972 12.261-10.397-7.479-10.348 7.356 3.972-12.261-10.397-7.356h12.825z"></path>
<path fill="#b2b2b2" d="M119.761 0l4.021 12.261h12.8l-10.397 7.528 3.972 12.261-10.397-7.528-10.348 7.528 3.972-12.261-10.397-7.528h12.825z"></path>
<path fill="#b2b2b2" d="M154.090 0l4.021 12.261h12.8l-10.397 7.528 3.972 12.261-10.397-7.528-10.348 7.528 3.972-12.261-10.397-7.528h12.825z"></path>
</svg>
