<!-- Generated by IcoMoon.io -->
<svg version="1.1" xmlns="http://www.w3.org/2000/svg" width="32" height="32" viewBox="0 0 32 32">
<title>twitter</title>
<path d="M24.493 32.058h-16.989c-4.189 0-7.447-3.375-7.447-7.447v-17.105c0-1.978 0.815-3.84 2.211-5.353s3.258-2.211 5.236-2.211c0 0 0 0 0 0h16.989c4.189 0 7.447 3.375 7.447 7.447v16.989c0.116 4.305-3.258 7.68-7.447 7.68zM7.504 1.804c-1.513 0-3.025 0.582-4.073 1.629s-1.629 2.56-1.629 4.073v16.989c0 3.142 2.56 5.702 5.702 5.702h16.989c3.142 0 5.702-2.56 5.702-5.702v-16.989c0-3.142-2.56-5.702-5.702-5.702h-16.989c0 0 0 0 0 0z"></path>
<path d="M13.439 23.098c5.702 0 10.473-4.538 10.473-10.356 0 0 0-0.116 0-0.116 0-0.116 0-0.349 0-0.465 0.698-0.465 1.396-1.164 1.862-1.862-0.698 0.349-1.396 0.465-2.095 0.582 0.815-0.465 1.396-1.164 1.629-2.095-0.698 0.465-1.513 0.698-2.327 0.931-1.396-1.513-3.724-1.513-5.236-0.116-0.698 0.698-1.164 1.629-1.164 2.676 0 0.233 0 0.582 0.116 0.815-3.025-0.116-5.702-1.513-7.564-3.84-0.931 1.629-0.465 3.84 1.164 4.887-0.582 0-1.164-0.233-1.629-0.465v0c0 1.745 1.28 3.258 2.909 3.607-0.582 0.116-1.164 0.116-1.629 0.116 0.465 1.513 1.862 2.56 3.491 2.56-1.28 1.047-2.909 1.629-4.538 1.629-0.349 0-0.582 0-0.931 0 1.513 1.047 3.491 1.513 5.469 1.513z"></path>
</svg>
