<!-- Generated by IcoMoon.io -->
<svg version="1.1" xmlns="http://www.w3.org/2000/svg" width="32" height="32" viewBox="0 0 32 32">
<title>user</title>
<path d="M31.062 26.674c0 3.162-5.492 5.326-14.979 5.326h-0.167c-9.487 0-14.979-2.163-14.979-5.326 0-2.83 3.662-8.822 7.989-11.318-3.662-3.162-3.994-8.488-0.832-11.984 0.167-0.333 0.499-0.499 0.666-0.666 3.994-3.495 9.986-3.662 13.98-0.167 3.662 2.995 3.994 8.488 0.999 11.984-0.167 0.333-0.499 0.499-0.666 0.666 4.328 2.663 7.989 8.488 7.989 11.484zM2.935 26.674c0 1.664 4.494 3.495 12.983 3.495h0.167c8.488 0 12.983-1.664 12.983-3.495 0-2.497-3.662-8.155-7.49-10.153-3.329 1.998-7.49 2.163-10.985 0.167-3.994 1.831-7.656 7.656-7.656 9.986zM18.913 2.207c-2.995-0.999-6.325-0.499-8.655 1.664-2.33 1.998-2.995 5.16-1.664 7.989 1.331 2.663 4.161 4.494 7.323 4.327 4.161 0.167 7.656-2.995 7.989-7.323-0.167-2.995-2.163-5.659-4.993-6.657v0z"></path>
</svg>
