<!-- Generated by IcoMoon.io -->
<svg version="1.1" xmlns="http://www.w3.org/2000/svg" width="32" height="32" viewBox="0 0 32 32">
<title>warning</title>
<path d="M17.168 3.611c-0.263-0.382-0.699-0.63-1.192-0.63s-0.929 0.247-1.189 0.625l-0.003 0.005-14.586 23.259c-0.125 0.203-0.199 0.45-0.199 0.714s0.074 0.51 0.202 0.72l-0.003-0.006c0.247 0.429 0.701 0.715 1.222 0.721h29.157c0.522-0.006 0.976-0.292 1.22-0.715l0.004-0.007c0.125-0.203 0.199-0.45 0.199-0.714s-0.074-0.51-0.202-0.72l0.003 0.006zM28.037 26.211h-24.121l12.061-19.212z"></path>
<path d="M14.737 23.843c0.279 0.259 0.654 0.417 1.065 0.417 0.061 0 0.122-0.003 0.181-0.010l-0.007 0.001c0.052 0.006 0.112 0.010 0.174 0.010 0.412 0 0.787-0.159 1.066-0.418l-0.001 0.001c0.233-0.23 0.377-0.55 0.377-0.903 0-0.008-0-0.016-0-0.024v0.001-0.471c0-0.004 0-0.009 0-0.014 0-0.351-0.144-0.668-0.376-0.896l-0-0c-0.291-0.248-0.671-0.399-1.086-0.399-0.054 0-0.107 0.003-0.159 0.007l0.007-0c-0.046-0.004-0.099-0.007-0.153-0.007-0.415 0-0.796 0.151-1.089 0.401l0.002-0.002c-0.232 0.228-0.376 0.545-0.376 0.896 0 0.005 0 0.010 0 0.014v-0.001 0.471c-0 0.007-0 0.015-0 0.023 0 0.353 0.144 0.672 0.377 0.903l0 0z"></path>
<path d="M15.475 20.518h1.004l0.863-3.842v-3.137h-2.729v3.184l0.863 3.795z"></path>
</svg>
