<!-- Generated by IcoMoon.io -->
<svg version="1.1" xmlns="http://www.w3.org/2000/svg" width="32" height="32" viewBox="0 0 32 32">
<title>youtube</title>
<path fill="#000" d="M24.506 32h-17.012c-4.136-0.007-7.487-3.358-7.494-7.493v-17.013c0.007-4.136 3.358-7.487 7.493-7.494h17.013c4.136 0.007 7.487 3.358 7.494 7.493v17.013c-0.007 4.136-3.358 7.487-7.493 7.494h-0.001zM7.494 1.745c-3.159 0.039-5.709 2.589-5.748 5.745v17.016c0.039 3.159 2.589 5.709 5.745 5.748h17.016c3.159-0.039 5.709-2.589 5.748-5.745v-17.016c-0.039-3.159-2.589-5.709-5.745-5.748h-0.004z"></path>
<path fill="#000" d="M25.46 20.108c-0.202 1.381-1.338 2.442-2.738 2.525h-0.008s-2.153 0.14-6.714 0.14c-3.363 0-6.714-0.14-6.714-0.14-1.41-0.079-2.549-1.142-2.744-2.509l-0.002-0.016c-0.128-1.232-0.201-2.661-0.201-4.108s0.073-2.876 0.215-4.285l-0.014 0.177c0.203-1.388 1.352-2.453 2.762-2.525h0.007s2.153-0.14 6.714-0.14 6.714 0.14 6.714 0.14c1.406 0.088 2.54 1.146 2.744 2.509l0.002 0.016c0.121 1.196 0.189 2.584 0.189 3.989 0 1.489-0.077 2.959-0.228 4.408l0.015-0.181z"></path>
<path fill="#fff" d="M13.964 18.537l5.236-2.7-5.236-2.735z"></path>
</svg>
