<!-- Generated by IcoMoon.io -->
<svg version="1.1" xmlns="http://www.w3.org/2000/svg" width="32" height="32" viewBox="0 0 32 32">
<title>cintre</title>
<path d="M16.727 15.382v-0.518c2.659-0.399 4.674-2.667 4.674-5.406 0-3.017-2.447-5.464-5.464-5.464-3.015 0-5.46 2.443-5.464 5.458v0c0 0.401 0.326 0.726 0.726 0.726s0.726-0.326 0.726-0.726v0c0-0.015 0-0.032 0-0.050 0-2.251 1.825-4.075 4.075-4.075s4.075 1.825 4.075 4.075c0 2.251-1.825 4.075-4.075 4.075 0 0-0.001 0-0.001 0v0c-0.002 0-0.003 0-0.005 0-0.397 0-0.719 0.32-0.722 0.716v1.188l-13.542 6.739c-1.034 0.518-1.732 1.569-1.732 2.783 0 1.714 1.389 3.102 3.102 3.102 0.016 0 0.032 0 0.048 0h25.696c0.016 0 0.034 0.001 0.052 0.001 1.714 0 3.102-1.389 3.102-3.102 0-1.214-0.698-2.265-1.714-2.774l-0.018-0.008-13.543-6.739zM29.616 23.399c0.557 0.279 0.932 0.846 0.932 1.5 0 0.924-0.749 1.673-1.673 1.673-0.006 0-0.012 0-0.018 0h-25.708c-0.005 0-0.011 0-0.017 0-0.924 0-1.673-0.749-1.673-1.673 0-0.654 0.375-1.221 0.922-1.495l0.010-0.005 13.61-6.775z"></path>
</svg>
