<!-- Generated by IcoMoon.io -->
<svg version="1.1" xmlns="http://www.w3.org/2000/svg" width="32" height="32" viewBox="0 0 32 32">
<title>country-es</title>
<path fill="#e52a18" d="M0.471 12.155c1.784-7.033 8.059-12.154 15.53-12.154 8.837 0 15.999 7.163 15.999 15.999s-7.163 15.999-15.999 15.999c-1.365 0-2.689-0.171-3.955-0.492l0.111 0.024c-7.033-1.786-12.154-8.063-12.154-15.534 0-1.364 0.171-2.688 0.492-3.953l-0.024 0.111z"></path>
<path fill="#e52a18" d="M0.932 10.624h30.138c-2.274-6.244-8.161-10.623-15.069-10.623s-12.794 4.379-15.034 10.512l-0.035 0.111z"></path>
<path fill="#ffd300" d="M31.662 19.296c0-0.032 0.017-0.064 0.025-0.107s0.025-0.121 0.032-0.178c0.009-0.031 0.015-0.068 0.017-0.105v-0.001c0-0.064 0.025-0.121 0.032-0.186s0-0.064 0.017-0.089c0.017-0.072 0.025-0.154 0.040-0.228 0-0.017 0-0.032 0-0.050 0.017-0.089 0.025-0.186 0.040-0.275 0-0.025 0-0.050 0-0.072 0-0.064 0.017-0.139 0.025-0.203s0-0.064 0-0.097c0.009-0.052 0.015-0.113 0.017-0.176v-0.003c0-0.032 0-0.064 0-0.097s0-0.121 0.017-0.186 0-0.064 0-0.097c0-0.072 0-0.139 0.017-0.211-0.002-0.010-0.003-0.021-0.003-0.032s0.001-0.023 0.003-0.033v0.001c0-0.089 0-0.186 0.017-0.275v-0.050c0-0.072 0-0.154 0-0.228v-0.649c0.002-0.030 0.003-0.066 0.003-0.102s-0.001-0.071-0.003-0.106v0.005-0.072c0-0.186-0.017-0.364-0.032-0.55 0.002-0.011 0.003-0.023 0.003-0.036s-0.001-0.025-0.003-0.037v0.001c0-0.064 0-0.129-0.017-0.203 0-0.032 0-0.057 0-0.089-0.009-0.054-0.015-0.118-0.017-0.184v-0.002c0-0.032 0-0.057 0-0.089s-0.017-0.129-0.025-0.203c0-0.025 0-0.050 0-0.072-0.025-0.178-0.050-0.364-0.082-0.542 0-0.017 0-0.032 0-0.050-0.011-0.086-0.025-0.16-0.043-0.232l0.003 0.014c0-0.025 0-0.050-0.017-0.072-0.011-0.076-0.025-0.143-0.042-0.207l0.003 0.012c0-0.025 0-0.050-0.017-0.082s-0.025-0.129-0.040-0.203c0-0.025 0-0.040-0.017-0.064-0.017-0.082-0.040-0.161-0.057-0.248v-0.017c-0.025-0.082-0.040-0.171-0.064-0.248v0c-0.121-0.471-0.248-0.931-0.421-1.385h-30.141c-0.149 0.393-0.307 0.904-0.438 1.425l-0.022 0.105c-0.3 1.156-0.472 2.483-0.472 3.852 0 0.883 0.072 1.748 0.21 2.592l-0.012-0.092c-0.002 0.004-0.003 0.008-0.003 0.012s0.001 0.009 0.003 0.013v0c0.011 0.090 0.025 0.167 0.043 0.243l-0.003-0.015c0 0.017 0 0.032 0 0.050 0.017 0.072 0.025 0.139 0.040 0.211 0.002 0.024 0.008 0.046 0.018 0.066l-0.001-0.001c0.017 0.064 0.025 0.129 0.040 0.193 0 0.025 0 0.050 0.017 0.072 0.017 0.064 0.025 0.121 0.040 0.186s0.017 0.057 0.025 0.089 0.025 0.114 0.040 0.178 0.025 0.089 0.032 0.129l0.050 0.196c0.018 0.079 0.038 0.144 0.061 0.208l-0.004-0.012c0 0.032 0.017 0.057 0.025 0.082 0.018 0.075 0.038 0.137 0.061 0.197l-0.004-0.011c0 0.032 0.017 0.057 0.025 0.089s0.040 0.121 0.057 0.178 0.017 0.057 0.025 0.082 0.040 0.121 0.057 0.178 0.017 0.057 0.025 0.082c0.025 0.064 0.040 0.121 0.064 0.186 0 0.017 0 0.032 0.017 0.040v0c0.017 0.040 0.025 0.072 0.040 0.114h30.029c0.017-0.040 0.025-0.072 0.040-0.114v0c0.032-0.097 0.064-0.186 0.097-0.282 0 0 0-0.017 0-0.025 0.040-0.121 0.082-0.248 0.121-0.372 0-0.017 0-0.032 0.017-0.050 0.032-0.114 0.072-0.235 0.107-0.357l0.025-0.072c0.040-0.139 0.072-0.282 0.114-0.421 0.025-0.089 0.050-0.186 0.064-0.275 0.009-0.026 0.015-0.057 0.017-0.088v-0.001c0.012-0.069 0.026-0.127 0.043-0.183l-0.003 0.012z"></path>
</svg>
