<!-- Generated by IcoMoon.io -->
<svg version="1.1" xmlns="http://www.w3.org/2000/svg" width="32" height="32" viewBox="0 0 32 32">
<title>country-de</title>
<path fill="#ffd300" d="M0.474 12.156c1.782-7.036 8.058-12.159 15.53-12.159 8.835 0 15.998 7.162 15.998 15.998s-7.162 15.998-15.998 15.998c-1.366 0-2.693-0.171-3.959-0.494l0.111 0.024c-7.031-1.787-12.149-8.061-12.149-15.53 0-1.362 0.17-2.685 0.491-3.948l-0.024 0.111z"></path>
<path fill="#221c10" d="M0.934 10.624h30.133c-2.273-6.245-8.158-10.624-15.066-10.624s-12.793 4.379-15.031 10.513l-0.035 0.111z"></path>
<path fill="#e6392e" d="M31.657 19.295c0-0.032 0.017-0.065 0.025-0.104s0.025-0.122 0.032-0.179c0.009-0.031 0.015-0.066 0.017-0.103v-0.001c0-0.065 0.025-0.122 0.032-0.186s0-0.065 0.017-0.089c0.017-0.072 0.025-0.154 0.040-0.226 0-0.017 0-0.032 0-0.050 0.017-0.089 0.025-0.186 0.040-0.276 0-0.025 0-0.050 0-0.072 0-0.065 0.017-0.137 0.025-0.204s0-0.065 0-0.097c0.009-0.052 0.015-0.114 0.017-0.177v-0.002c0-0.032 0-0.065 0-0.097s0-0.122 0.017-0.186 0-0.065 0-0.097c0-0.072 0-0.137 0.017-0.211v-0.065c0-0.089 0-0.186 0.017-0.276v-0.050c0-0.072 0-0.154 0-0.226v-0.648c0.002-0.030 0.003-0.066 0.003-0.102s-0.001-0.071-0.003-0.107v0.005-0.072c0-0.186-0.017-0.365-0.032-0.551 0.002-0.011 0.003-0.023 0.003-0.036s-0.001-0.025-0.003-0.037v0.001c0-0.065 0-0.129-0.017-0.204 0-0.032 0-0.057 0-0.089-0.009-0.055-0.015-0.119-0.017-0.184v-0.002c0-0.032 0-0.057 0-0.089s-0.017-0.129-0.025-0.204c0-0.025 0-0.050 0-0.072-0.025-0.179-0.050-0.365-0.082-0.544 0-0.017 0-0.032 0-0.050-0.011-0.086-0.025-0.16-0.043-0.233l0.003 0.014c0-0.025 0-0.050-0.017-0.072-0.011-0.076-0.025-0.141-0.042-0.205l0.003 0.012c0-0.025 0-0.050-0.017-0.072-0.017-0.065-0.025-0.129-0.040-0.204 0-0.025 0-0.040-0.017-0.065-0.017-0.082-0.040-0.161-0.057-0.248v-0.017c-0.025-0.082-0.040-0.171-0.065-0.248v0c-0.122-0.469-0.248-0.931-0.422-1.385h-30.133c-0.15 0.393-0.308 0.905-0.439 1.427l-0.022 0.105c-0.3 1.157-0.473 2.485-0.473 3.853 0 0.882 0.072 1.748 0.209 2.591l-0.012-0.092c-0.002 0.004-0.003 0.008-0.003 0.012s0.001 0.009 0.003 0.013v0c0 0.072 0.025 0.146 0.040 0.226 0 0.017 0 0.032 0 0.050 0.017 0.072 0.025 0.137 0.040 0.211 0 0.025 0 0.040 0 0.065 0.017 0.065 0.025 0.129 0.040 0.194 0 0.025 0 0.050 0.017 0.072 0.017 0.065 0.025 0.122 0.040 0.186s0.017 0.057 0.025 0.089 0.025 0.114 0.040 0.179 0.025 0.089 0.032 0.129l0.050 0.194c0.018 0.078 0.038 0.143 0.061 0.206l-0.004-0.012c0 0.032 0.017 0.057 0.025 0.082 0.018 0.075 0.038 0.137 0.061 0.197l-0.004-0.011c0 0.032 0.017 0.057 0.025 0.089s0.040 0.122 0.057 0.179 0.017 0.057 0.025 0.082c0.017 0.065 0.040 0.122 0.057 0.179s0.017 0.057 0.025 0.082c0.025 0.065 0.040 0.122 0.065 0.186 0 0.017 0 0.032 0.017 0.040v0c0.017 0.040 0.025 0.072 0.040 0.114h30.034c0.017-0.040 0.025-0.072 0.040-0.114v0c0.032-0.097 0.065-0.186 0.097-0.283 0 0 0-0.017 0-0.025 0.040-0.122 0.082-0.248 0.122-0.372 0-0.017 0-0.032 0.017-0.050 0.032-0.114 0.072-0.236 0.104-0.358l0.025-0.072c0.040-0.137 0.072-0.283 0.114-0.422 0.025-0.089 0.040-0.186 0.065-0.276 0.009-0.026 0.015-0.057 0.017-0.088v-0.001c0.017-0.057 0.032-0.122 0.050-0.179z"></path>
</svg>
