<!-- Generated by IcoMoon.io -->
<svg version="1.1" xmlns="http://www.w3.org/2000/svg" width="32" height="32" viewBox="0 0 32 32">
<title>delete</title>
<path d="M29.026 3.813h-7.138c-0.607 0-1.098-0.492-1.098-1.098v0c0.001-0.023 0.001-0.049 0.001-0.076 0-1.457-1.181-2.639-2.639-2.639-0 0-0.001 0-0.001 0h-4.301c-1.457 0-2.639 1.181-2.639 2.639v0c0.002 0.023 0.003 0.050 0.003 0.076 0 0.607-0.492 1.098-1.098 1.098-0.006 0-0.013-0-0.019-0h-7.122c-0.418 0.008-0.754 0.345-0.763 0.762v3.326c0 0.421 0.341 0.763 0.763 0.763v0h0.641l1.708 21.079c0.113 1.262 1.16 2.246 2.439 2.257h16.459c1.287-0.003 2.342-0.99 2.455-2.248l0.001-0.009 1.708-21.079h0.641c0.421 0 0.763-0.341 0.763-0.763v0-3.401c-0.047-0.385-0.369-0.681-0.762-0.686h-0.001zM12.736 2.639c0-0.615 0.498-1.113 1.113-1.113v0h4.301c0.615 0 1.113 0.498 1.113 1.113v0c-0 0.019-0.001 0.042-0.001 0.064 0 0.403 0.090 0.785 0.252 1.126l-0.007-0.016h-7.016c0.155-0.325 0.245-0.707 0.245-1.11 0-0.023-0-0.045-0.001-0.068l0 0.003zM3.798 5.338h24.404v1.8h-24.404zM25.152 29.743c-0.033 0.479-0.429 0.854-0.913 0.854-0.001 0-0.001 0-0.002 0h-16.457c-0.001 0-0.001 0-0.002 0-0.484 0-0.88-0.376-0.913-0.851l-0-0.003-1.724-21.079h21.72z"></path>
<path d="M16 26.692c0.211 0 0.381-0.171 0.381-0.381v0-13.346c0-0.211-0.171-0.381-0.381-0.381s-0.381 0.171-0.381 0.381v0 13.27c-0.005 0.023-0.008 0.049-0.008 0.076 0 0.211 0.171 0.381 0.381 0.381 0.003 0 0.005-0 0.008-0h-0z"></path>
<path d="M21.094 26.692v0c0 0 0.001 0 0.001 0 0.2 0 0.364-0.154 0.38-0.349l0-0.001 1.129-13.377c0.001-0.009 0.001-0.020 0.001-0.032 0-0.2-0.154-0.365-0.351-0.38l-0.001-0c-0.009-0.001-0.020-0.001-0.032-0.001-0.2 0-0.365 0.154-0.38 0.351l-0 0.001-1.098 13.3c-0.010 0.032-0.015 0.069-0.015 0.107 0 0.205 0.162 0.373 0.365 0.381l0.001 0z"></path>
<path d="M10.875 26.692v0c0.198-0.016 0.352-0.18 0.352-0.38 0-0.011-0-0.022-0.001-0.033l0 0.001-1.068-13.316c-0.016-0.198-0.18-0.352-0.38-0.352-0.011 0-0.022 0-0.033 0.001l0.001-0c-0.198 0.016-0.352 0.18-0.352 0.38 0 0.011 0 0.022 0.001 0.033l-0-0.001 1.098 13.3c0.008 0.204 0.176 0.366 0.381 0.366 0 0 0 0 0 0v0z"></path>
</svg>
