<!-- Generated by IcoMoon.io -->
<svg version="1.1" xmlns="http://www.w3.org/2000/svg" width="31" height="32" viewBox="0 0 31 32">
<title>gear</title>
<path d="M18.602 32h-5.913c-1.272-0.008-2.302-1.037-2.31-2.309v-2.060c-0.831-0.356-1.545-0.757-2.209-1.222l0.039 0.026-1.795 1.043c-0.329 0.191-0.724 0.304-1.145 0.304-0.85 0-1.592-0.459-1.993-1.142l-0.006-0.011-2.963-5.19c-0.193-0.327-0.307-0.72-0.307-1.14 0-0.218 0.031-0.43 0.088-0.629l-0.004 0.016c0.167-0.598 0.551-1.086 1.060-1.385l0.011-0.006 1.795-1.030c0-0.417-0.070-0.835-0.070-1.252s0-0.835 0.070-1.252l-1.795-1.043c-0.692-0.414-1.149-1.16-1.149-2.013 0-0.421 0.111-0.816 0.306-1.157l-0.006 0.011 2.963-5.12c0.407-0.694 1.149-1.153 1.999-1.153 0.421 0 0.816 0.113 1.156 0.31l-0.011-0.006 1.795 1.043c0.628-0.465 1.341-0.888 2.095-1.235l0.075-0.031v-2.059c0.008-1.272 1.037-2.302 2.309-2.31h5.914c1.254 0.031 2.26 1.052 2.268 2.309v2.060c0.83 0.378 1.542 0.801 2.203 1.289l-0.033-0.023 1.781-1.043c0.331-0.192 0.727-0.305 1.151-0.305 0.852 0 1.597 0.459 2.002 1.143l0.006 0.011 2.95 5.12c0.197 0.333 0.314 0.734 0.314 1.162 0 0.848-0.457 1.589-1.138 1.99l-0.011 0.006-1.795 1.030c0 0.417 0.070 0.835 0.070 1.252s0 0.835-0.070 1.252l1.795 1.030c0.692 0.408 1.148 1.149 1.148 1.996 0 0.428-0.116 0.829-0.319 1.173l0.006-0.011-2.95 5.12c-0.414 0.692-1.16 1.149-2.013 1.149-0.421 0-0.816-0.111-1.157-0.306l0.011 0.006-1.739-0.974c-0.628 0.461-1.34 0.883-2.093 1.234l-0.078 0.032v2.059c-0.046 1.242-1.061 2.233-2.309 2.24h-0.001zM13.162 29.217h4.925v-2.518c0-0.598 0.378-1.109 0.909-1.305l0.010-0.003c1.176-0.422 2.191-1.011 3.077-1.752l-0.016 0.013c0.241-0.205 0.555-0.329 0.898-0.329 0.259 0 0.501 0.071 0.708 0.193l-0.006-0.004 2.184 1.252 2.477-4.285-2.184-1.266c-0.418-0.245-0.694-0.692-0.694-1.204 0-0.066 0.005-0.131 0.013-0.194l-0.001 0.007c0.106-0.527 0.167-1.133 0.167-1.753s-0.061-1.226-0.177-1.812l0.010 0.059c-0.008-0.056-0.013-0.121-0.013-0.187 0-0.512 0.276-0.959 0.688-1.201l0.007-0.004 2.184-1.266-2.477-4.41-2.198 1.252c-0.197 0.113-0.432 0.179-0.683 0.179-0.345 0-0.661-0.126-0.904-0.334l0.002 0.002c-0.86-0.724-1.86-1.316-2.949-1.73l-0.071-0.024c-0.553-0.184-0.947-0.691-0.96-1.292v-2.52h-4.925v2.518c0 0.598-0.378 1.109-0.909 1.305l-0.010 0.003c-1.159 0.432-2.159 1.021-3.035 1.752l0.016-0.013c-0.241 0.205-0.555 0.329-0.898 0.329-0.259 0-0.501-0.071-0.708-0.193l0.006 0.004-2.184-1.252-2.477 4.299 2.184 1.266c0.411 0.247 0.681 0.69 0.681 1.197 0 0.069-0.005 0.136-0.015 0.202l0.001-0.008c-0.097 0.527-0.153 1.134-0.153 1.753s0.056 1.226 0.162 1.815l-0.009-0.062c0.009 0.058 0.014 0.126 0.014 0.195 0 0.506-0.271 0.95-0.675 1.193l-0.006 0.003-2.198 1.266 2.49 4.285 2.184-1.252c0.201-0.119 0.443-0.19 0.702-0.19 0.343 0 0.658 0.124 0.9 0.331l-0.002-0.002c0.855 0.77 1.855 1.4 2.952 1.841l0.067 0.024c0.54 0.199 0.918 0.709 0.918 1.308v0z"></path>
<path d="M15.638 21.704c-3.144-0.008-5.69-2.559-5.69-5.704 0-3.15 2.554-5.704 5.704-5.704s5.704 2.554 5.704 5.704v0c-0.008 3.152-2.565 5.704-5.718 5.704 0 0 0 0 0 0v0zM15.638 13.078c-1.608 0.008-2.908 1.313-2.908 2.922 0 1.614 1.308 2.922 2.922 2.922s2.922-1.308 2.922-2.922v0c-0.008-1.615-1.319-2.922-2.936-2.922 0 0 0 0 0 0v0z"></path>
</svg>
