<svg version="1.1" width="32" height="32" xmlns="http://www.w3.org/2000/svg">
 <path fill="#000000" d="m16.0144,30.83122c-0.377,-0.592 -9.8474,-15.81922 -9.8474,-20.99822c0,-5.43 4.402,-9.833 9.833,-9.833s9.833,4.402 9.833,9.833l0,0c0,5.179 -9.47815,20.40097 -9.82715,20.99297l0.00855,0.00525z"/>
 <path fill="#ffffff" d="m15.999,14.461c-2.556,0 -4.627,-2.072 -4.627,-4.627s2.072,-4.627 4.627,-4.627c2.556,0 4.627,2.072 4.627,4.627l0,0c0,2.556 -2.072,4.627 -4.627,4.627l0,0l0,0l0,0l0,0zm0.013,-7.896c-0.005,0 -0.009,0 -0.014,0"/>
</svg>