<!-- Generated by IcoMoon.io -->
<svg version="1.1" xmlns="http://www.w3.org/2000/svg" width="32" height="32" viewBox="0 0 32 32">
<title>gift-cheque</title>
<path d="M0 11.938v13.315h25.925v-6.025c-0.095 0.005-0.189 0.014-0.286 0.014s-0.191-0.009-0.286-0.014v5.457h-24.783v-12.172h19.026c0.020-0.193 0.050-0.384 0.088-0.571z"></path>
<path d="M3.252 12.024l-3.166 3.186 0.404 0.404 3.166-3.185z"></path>
<path d="M4.837 12.024l-4.753 4.779 0.404 0.404 4.754-4.778z"></path>
<path d="M19.301 23.091v0.571h4.753v-0.571z"></path>
<path d="M3.455 15.128v0.571h16.676c-0.071-0.147-0.148-0.335-0.216-0.529l-0.013-0.042h-16.447z"></path>
<path d="M3.455 16.72v0.571h12.737v-0.571z"></path>
<path d="M3.455 18.312v0.571h7.954v-0.571z"></path>
<path d="M25.64 6.747c-0.009 0-0.020 0-0.032 0-3.53 0-6.392 2.862-6.392 6.392s2.862 6.392 6.392 6.392c3.53 0 6.392-2.861 6.392-6.392v0c-0.009-3.516-2.848-6.365-6.357-6.392h-0.002zM25.64 7.318c0.009 0 0.020 0 0.032 0 3.215 0 5.821 2.606 5.821 5.821s-2.606 5.821-5.821 5.821c-3.215 0-5.821-2.606-5.821-5.821v0c0-0.004 0-0.009 0-0.014 0-3.2 2.59-5.796 5.788-5.806h0.001z"></path>
<path d="M24.411 9.52l-2.393 2.393v4.851h4.851l2.389-2.389v-4.851zM24.647 10.091h4.042v4.042l-2.055 2.055h-4.042v-4.042z"></path>
<path d="M28.771 9.603l-2.138 2.138h-4.325v0.571h4.562l2.307-2.306z"></path>
<path d="M26.465 12.028v4.446h0.571v-4.446z"></path>
<path d="M25.796 10.486l0.555 0.393-0.437 0.617-0.555-0.393 0.437-0.617z"></path>
<path d="M3.453 19.908v2.164h10.080v-2.164zM4.025 20.479h2.598v1.021h-2.598zM7.191 20.479h5.771v1.021h-5.767z"></path>
</svg>
