<!-- Generated by IcoMoon.io -->
<svg version="1.1" xmlns="http://www.w3.org/2000/svg" width="32" height="32" viewBox="0 0 32 32">
<title>google-plus</title>
<path d="M24.506 32h-17.012c-4.136-0.007-7.487-3.358-7.494-7.493v-17.013c0.007-4.136 3.358-7.487 7.493-7.494h17.013c4.136 0.007 7.487 3.358 7.494 7.493v17.013c-0.007 4.136-3.358 7.487-7.493 7.494h-0.001zM7.494 1.745c-3.159 0.039-5.709 2.589-5.748 5.745v17.016c0.039 3.159 2.589 5.709 5.745 5.748h17.016c3.159-0.039 5.709-2.589 5.748-5.745v-17.016c-0.039-3.159-2.589-5.709-5.745-5.748h-0.004z"></path>
<path d="M12.393 14.883v2.223h3.665c-0.332 1.609-1.738 2.802-3.422 2.802-0.090 0-0.179-0.003-0.267-0.010l0.012 0.001c-2.067-0.228-3.66-1.964-3.66-4.073s1.593-3.845 3.642-4.071l0.018-0.002c0.026-0.001 0.057-0.001 0.088-0.001 0.969 0 1.848 0.382 2.496 1.003l-0.001-0.001 1.757-1.699c-1.12-1.080-2.646-1.745-4.327-1.745-0.005 0-0.009 0-0.014 0h0.001c-3.58 0-6.481 2.902-6.481 6.481s2.902 6.481 6.481 6.481v0c3.45-0.026 6.237-2.829 6.237-6.283 0-0.016 0-0.033 0-0.049v0.002c0-0.375-0.038-0.741-0.111-1.094l0.006 0.035z"></path>
<path d="M26.275 14.883h-1.839v-1.85h-1.862v1.85h-1.85v1.839h1.85v1.897h1.862v-1.862h1.85z"></path>
</svg>
