<!-- Generated by IcoMoon.io -->
<svg version="1.1" xmlns="http://www.w3.org/2000/svg" width="32" height="32" viewBox="0 0 32 32">
<title>info</title>
<path d="M16 0c-8.837 0-16 7.163-16 16s7.163 16 16 16c8.837 0 16-7.163 16-16 0-0.006 0-0.011 0-0.017v0.001c-0.009-8.83-7.169-15.984-16-15.984 0 0-0 0-0 0h0zM29.173 15.984c0 7.275-5.898 13.173-13.173 13.173s-13.173-5.898-13.173-13.173c0-7.275 5.898-13.173 13.173-13.173v0c7.271 0.009 13.164 5.901 13.173 13.172v0.001z"></path>
<path d="M16.111 12.478c0.077 0.011 0.166 0.017 0.256 0.017 0.464 0 0.888-0.168 1.216-0.446l-0.003 0.002c0.245-0.255 0.395-0.602 0.395-0.984 0-0.015-0-0.030-0.001-0.045l0 0.002v-0.505c0-0.014 0.001-0.030 0.001-0.046 0-0.386-0.151-0.737-0.396-0.997l0.001 0.001c-0.321-0.263-0.735-0.422-1.186-0.422-0.072 0-0.142 0.004-0.212 0.012l0.009-0.001c-0.064-0.008-0.138-0.012-0.213-0.012-0.448 0-0.86 0.16-1.18 0.425l0.003-0.002c-0.254 0.264-0.411 0.623-0.411 1.019 0 0.008 0 0.017 0 0.025v-0.001 0.505c-0 0.006-0 0.013-0 0.021 0 0.392 0.157 0.747 0.411 1.006l-0-0c0.319 0.268 0.733 0.431 1.186 0.431 0.044 0 0.088-0.002 0.131-0.005l-0.006 0z"></path>
<path d="M17.627 13.268h-5.986v2.48h2.938v4.691h-2.938v2.464h8.719v-2.464h-2.732v-7.171z"></path>
</svg>
