<!-- Generated by IcoMoon.io -->
<svg version="1.1" xmlns="http://www.w3.org/2000/svg" width="168" height="32" viewBox="0 0 168 32">
<title>promod</title>
<path d="M162.647 0.924l1.778 1.105v6.669c-1.418-0.69-4.082-1.774-6.823-1.774-1.961 0-4.038 0.096-5.937 0.793-0.683 0.278-1.046 0.45-1.047 0.45-4.162 1.769-6.958 5.074-6.958 8.225 0 4.934 5.967 9.103 13.030 9.103 2.794 0 5.162-1.121 7.453-2.205l0.283-0.133v2.141h3.513v-25.299l-5.291 0.924zM164.425 21.406c-2.013 1.466-3.955 2.093-6.487 2.093-5.789 0-10.498-3.452-10.498-7.696 0-4.179 4.062-7.33 9.449-7.33 2.695 0 5.439 0.885 7.536 2.43v10.504z"></path>
<path d="M127.209 7.131c-2.603 0-5.238 0.483-7.422 1.359-3.473 1.387-6.978 4.404-6.978 8.020 0 5.002 5.901 9.096 13.152 9.126 0.046 0.001 0.091 0.001 0.137 0.001 2.447 0 5.288-0.726 7.153-1.415 4.082-1.529 6.932-4.885 6.932-8.162 0-4.923-5.82-8.928-12.975-8.928zM136.341 16.51c0 2.599-1.929 5.265-4.691 6.483-1.329 0.559-3.301 0.81-4.664 0.81-5.71 0-10.356-3.474-10.356-7.743 0-2.657 1.867-5.201 4.758-6.483 1.229-0.559 2.647-0.809 4.598-0.809 5.71 0 10.355 3.473 10.355 7.743z"></path>
<path d="M106.436 8.652c-1.559-0.936-3.029-1.336-4.912-1.336-2.866 0-6.023 1.515-7.596 2.966-0.337-0.551-0.757-1.014-1.214-1.339-1.235-1.049-2.991-1.627-4.944-1.627-2.258 0-5.114 1.022-7.017 2.501v-2.968l-5.273 0.899 1.753 1.137v16.415h3.52v-13.53c1.414-1.862 3.485-2.846 5.991-2.846 1.662 0 2.525 0.488 3.53 1.382 0.607 0.651 0.915 1.418 0.915 2.28v12.713h3.301v-13.53c1.409-1.888 3.431-2.846 6.008-2.846 1.638 0 3.149 0.506 4.138 1.382 0.608 0.654 0.915 1.422 0.915 2.28v12.713h3.496v-12.938c0-1.426-0.951-2.778-2.609-3.71z"></path>
<path d="M60.527 7.131c-2.6 0-5.235 0.483-7.422 1.359-3.473 1.395-6.978 4.416-6.978 8.020 0 5.002 5.901 9.096 13.152 9.126 0.046 0.001 0.093 0.001 0.139 0.001 2.461 0 5.308-0.726 7.173-1.415 4.069-1.532 6.911-4.889 6.911-8.162 0-4.923-5.821-8.928-12.975-8.928zM69.66 16.51c0 2.609-1.929 5.275-4.691 6.483-1.329 0.559-3.3 0.81-4.664 0.81-5.697 0-10.332-3.474-10.332-7.743 0-2.654 1.858-5.199 4.735-6.484 1.211-0.559 2.636-0.809 4.618-0.809 5.698 0 10.334 3.473 10.334 7.743z"></path>
<path d="M44.612 7.322c-0.774-0.269-1.623-0.4-2.597-0.4-2.861 0-5.855 1.419-7.624 2.863v-2.935l-5.321 0.899 1.769 1.137v16.414h3.552v-13.556c1.685-2.063 3.472-2.904 6.158-2.904 1.033 0 2.030 0.254 3.129 0.56 0.365 0.113 0.743 0.262 1.077 0.393l0.076 0.030 0.928-2.072-0.081-0.034c-0.417-0.173-0.756-0.299-1.066-0.396z"></path>
<path d="M13.069 6.726c-2.882 0-5.333 1.191-7.703 2.343l-0.049 0.024v-2.382l-5.317 0.898 1.788 1.106v23.285h3.53v-8.464c2.469 1.251 4.722 1.886 6.7 1.886 2.258 0 4.081-0.089 6.995-1.243 3.31-1.297 7.175-4.253 7.175-8.316 0.009-2.076-0.751-3.895-2.257-5.408-2.325-2.335-6.385-3.729-10.86-3.729zM22.388 16.482c0 4.15-4.084 7.279-9.498 7.279-2.77 0-5.527-0.876-7.573-2.403v-10.511c2-1.468 3.953-2.094 6.52-2.094 5.818 0 10.551 3.467 10.551 7.729z"></path>
</svg>
