<!-- Generated by IcoMoon.io -->
<svg version="1.1" xmlns="http://www.w3.org/2000/svg" width="183" height="32" viewBox="0 0 183 32">
<title>promod-rose</title>
<path fill="#ed3d89" d="M181.616 25.92c-2.103-0.64-4.206-1.189-6.217-2.194-1.554-0.823-2.56-1.463-3.84-2.651-0.091-0.091-0.549-0.549-0.549-0.549-1.006-1.554-1.463-3.017-1.097-4.663 0-0.091 0-0.183 0.091-0.274 0.549-0.274 1.097-0.549 1.646-0.823 2.469-1.28 4.571-2.743 6.309-4.937 0.914-1.097 1.646-2.194 1.829-3.566-1.737-3.017 0 0-1.737-3.017-1.28-1.006-3.109 0.091-3.84 0.549-1.097 0.823-2.103 1.92-2.834 3.017-1.463 2.103-2.469 4.206-2.743 6.491-3.474 1.646-6.857 3.109-10.606 3.84l1.28 2.286c3.291-0.731 6.4-1.92 9.509-3.383 1.371 3.2 3.017 6.217 5.76 8.411 2.56 2.103 5.486 2.651 8.32 3.566l-1.28-2.103zM171.559 11.291c0.64-1.554 1.737-3.2 2.926-4.297 1.097-1.006 2.377-2.011 3.931-2.011-1.189 3.2-5.029 5.943-7.131 7.040 0.091-0.274 0.183-0.457 0.274-0.731z"></path>
<path fill="#0b0204" d="M142.576 2.789l1.554 1.006v5.851c-1.28-0.64-3.566-1.554-5.943-1.554-1.737 0-3.566 0.091-5.211 0.731-0.64 0.274-0.914 0.366-0.914 0.366-3.657 1.554-6.126 4.48-6.126 7.223 0 4.297 5.211 7.954 11.429 7.954 2.469 0 4.571-1.006 6.583-1.92l0.274-0.091v1.92h3.109v-22.309l-4.754 0.823zM144.13 20.709c-1.737 1.28-3.474 1.829-5.669 1.829-5.12 0-9.234-3.017-9.234-6.766 0-3.657 3.566-6.4 8.32-6.4 2.377 0 4.754 0.731 6.583 2.103v9.234z"></path>
<path fill="#0b0204" d="M111.49 8.183c-2.286 0-4.571 0.457-6.491 1.189-3.017 1.189-6.126 3.84-6.126 7.040 0 4.389 5.211 7.954 11.52 8.046 0 0 0.091 0 0.091 0 2.103 0 4.663-0.64 6.309-1.28 3.566-1.371 6.126-4.297 6.126-7.131-0.091-4.297-5.211-7.863-11.429-7.863zM119.445 16.411c0 2.286-1.737 4.663-4.114 5.669-1.189 0.457-2.926 0.731-4.114 0.731-5.029 0-9.051-3.017-9.051-6.766 0-2.286 1.646-4.571 4.206-5.669 1.097-0.457 2.286-0.731 4.023-0.731 5.029 0 9.051 3.017 9.051 6.766z"></path>
<path fill="#0b0204" d="M93.205 9.554c-1.371-0.823-2.651-1.189-4.297-1.189-2.56 0-5.303 1.371-6.674 2.56-0.274-0.457-0.64-0.914-1.097-1.189-1.097-0.914-2.651-1.463-4.297-1.463-2.011 0-4.48 0.914-6.126 2.194v-2.469l-4.663 0.823 1.554 1.006v14.446h3.109v-11.886c1.28-1.646 3.017-2.469 5.211-2.469 1.463 0 2.194 0.457 3.109 1.189 0.549 0.549 0.823 1.28 0.823 2.011v11.154h2.926v-11.886c1.28-1.646 3.017-2.469 5.303-2.469 1.463 0 2.743 0.457 3.657 1.189 0.549 0.549 0.823 1.28 0.823 2.011v11.154h3.109v-11.429c-0.183-1.28-1.006-2.469-2.469-3.291z"></path>
<path fill="#0b0204" d="M52.976 8.183c-2.286 0-4.571 0.457-6.491 1.189-3.017 1.189-6.126 3.84-6.126 7.040 0 4.389 5.211 7.954 11.52 8.046 0 0 0.091 0 0.091 0 2.194 0 4.663-0.64 6.309-1.28 3.566-1.371 6.034-4.297 6.034-7.131 0-4.297-5.12-7.863-11.337-7.863zM60.93 16.411c0 2.286-1.737 4.663-4.114 5.669-1.189 0.457-2.926 0.731-4.114 0.731-5.029 0-9.051-3.017-9.051-6.766 0-2.286 1.646-4.571 4.114-5.669 1.097-0.457 2.286-0.731 4.023-0.731 5.12 0 9.143 3.017 9.143 6.766z"></path>
<path fill="#0b0204" d="M38.988 8.366c-0.64-0.274-1.463-0.366-2.286-0.366-2.469 0-5.12 1.28-6.674 2.469v-2.469l-4.663 0.823 1.554 1.006v14.354h3.109v-11.886c1.463-1.829 3.017-2.56 5.394-2.56 0.914 0 1.737 0.183 2.743 0.457 0.366 0.091 0.64 0.274 0.914 0.366h0.091l0.823-1.829h-0.091c-0.366-0.183-0.64-0.274-0.914-0.366z"></path>
<path fill="#0b0204" d="M11.285 7.817c-2.469 0-4.663 1.097-6.674 2.103v0-2.103l-4.663 0.823 1.554 1.006v20.389h3.109v-7.406c2.194 1.097 4.114 1.646 5.851 1.646 2.011 0 3.566-0.091 6.126-1.097 2.926-1.097 6.309-3.749 6.309-7.314 0-1.829-0.64-3.383-2.011-4.754-2.103-2.011-5.669-3.291-9.6-3.291zM19.513 16.411c0 3.657-3.566 6.4-8.32 6.4-2.469 0-4.846-0.731-6.674-2.103v-9.234c1.737-1.28 3.474-1.829 5.76-1.829 5.029 0 9.234 3.017 9.234 6.766z"></path>
</svg>
