<!-- Generated by IcoMoon.io -->
<svg version="1.1" xmlns="http://www.w3.org/2000/svg" width="32" height="32" viewBox="0 0 32 32">
<title>refund-cheque</title>
<path d="M25.119 16.264c0.156 0.027 0.335 0.043 0.519 0.043 1.153 0 2.162-0.622 2.707-1.55l0.008-0.014c0.272-0.46 0.432-1.013 0.432-1.603 0-0.751-0.26-1.443-0.695-1.987l0.005 0.006c-0.579-0.726-1.463-1.189-2.456-1.189-0.342 0-0.672 0.055-0.981 0.157l0.022-0.006c-1.226 0.409-2.107 1.514-2.179 2.835l-0.001 0.008 0.569 0.032c0.058-1.089 0.781-1.996 1.768-2.325l0.018-0.005c0.235-0.079 0.506-0.124 0.787-0.124 0.812 0 1.536 0.378 2.005 0.968l0.004 0.005c0.352 0.441 0.566 1.007 0.566 1.622 0 0.484-0.132 0.937-0.361 1.326l0.006-0.012c-0.452 0.772-1.278 1.282-2.223 1.282-0.15 0-0.297-0.013-0.44-0.038l0.015 0.002-0.093 0.565z"></path>
<path d="M25.58 14.78l-1.083 1.337 1.326 1.092 0.363-0.441-0.888-0.732 0.726-0.895z"></path>
<path d="M25.64 6.747c-0.009 0-0.020 0-0.032 0-3.53 0-6.392 2.862-6.392 6.392s2.862 6.392 6.392 6.392c3.53 0 6.392-2.861 6.392-6.391v0c-0.009-3.516-2.848-6.365-6.357-6.392h-0.002zM25.64 7.319c0.009 0 0.020 0 0.032 0 3.215 0 5.821 2.606 5.821 5.821s-2.606 5.821-5.821 5.821c-3.215 0-5.821-2.606-5.821-5.821v0c0-0.004 0-0.009 0-0.014 0-3.2 2.59-5.796 5.788-5.806h0.001z"></path>
<path d="M0.001 11.938v13.314h25.925v-6.025c-0.095 0.005-0.189 0.014-0.286 0.014s-0.191-0.009-0.286-0.014v5.457h-24.783v-12.171h19.026c0.020-0.193 0.050-0.384 0.088-0.571h-19.686z"></path>
<path d="M3.253 12.025l-3.166 3.186 0.404 0.404 3.166-3.185z"></path>
<path d="M4.838 12.025l-4.753 4.779 0.404 0.404 4.754-4.778z"></path>
<path d="M19.302 23.091v0.571h4.753v-0.571z"></path>
<path d="M3.455 15.128v0.571h16.676c-0.071-0.147-0.148-0.335-0.216-0.529l-0.013-0.042h-16.447z"></path>
<path d="M3.455 16.72v0.571h12.737v-0.571z"></path>
<path d="M3.455 18.312v0.571h7.954v-0.571z"></path>
<path d="M3.454 19.907v2.164h10.079v-2.164zM4.025 20.479h8.937v1.021h-8.936z"></path>
<path d="M6.624 20.193v1.594h0.571v-1.594z"></path>
</svg>
