<!-- Generated by IcoMoon.io -->
<svg version="1.1" xmlns="http://www.w3.org/2000/svg" width="32" height="32" viewBox="0 0 32 32">
<title>search</title>
<path d="M12.48 21.514c-5.092 0-9.218-4.128-9.218-9.218v0c0-5.092 4.128-9.218 9.218-9.218v0c5.092 0 9.218 4.128 9.218 9.218v0c0 5.092-4.128 9.218-9.218 9.218v0zM22.028 20.031c1.707-2.094 2.74-4.795 2.74-7.737 0-2.764-0.912-5.314-2.452-7.368l0.023 0.032c-2.265-3.023-5.839-4.959-9.864-4.959-2.765 0-5.316 0.913-7.37 2.453l0.032-0.023c-3.023 2.265-4.959 5.839-4.959 9.864 0 2.765 0.913 5.316 2.453 7.37l-0.023-0.032c2.265 3.023 5.839 4.959 9.864 4.959 2.765 0 5.316-0.913 7.37-2.453l-0.032 0.023 9.839 9.839 2.172-2.172z"></path>
</svg>
