<!-- Generated by IcoMoon.io -->
<svg version="1.1" xmlns="http://www.w3.org/2000/svg" width="171" height="32" viewBox="0 0 171 32">
<title>stars-full</title>
<path fill="#f7968e" d="M16.8 0l4 12.2h12.8l-10.4 7.5 4 12.2-10.4-7.5-10.4 7.6 4-12.2-10.4-7.6h12.8l4-12.2z"></path>
<path fill="#f7968e" d="M51.1 0l4 12.2h12.8l-10.4 7.5 4 12.2-10.4-7.5-10.3 7.6 4-12.2-10.4-7.5h12.8l3.9-12.3z"></path>
<path fill="#f7968e" d="M85.4 0l4 12.2h12.8l-10.4 7.5 4 12.2-10.4-7.5-10.3 7.6 4-12.2-10.4-7.5h12.8l3.9-12.3z"></path>
<path fill="#f7968e" d="M119.8 0l4 12.2h12.8l-10.4 7.5 4 12.2-10.4-7.5-10.4 7.6 4-12.2-10.4-7.5h12.8l4-12.3z"></path>
<path fill="#f7968e" d="M154.1 0l4 12.2h12.8l-10.4 7.5 4 12.2-10.4-7.5-10.4 7.6 4-12.2-10.4-7.5h12.8l4-12.3z"></path>
</svg>
