<!-- Generated by IcoMoon.io -->
<svg version="1.1" xmlns="http://www.w3.org/2000/svg" width="32" height="32" viewBox="0 0 32 32">
<title>country-pt</title>
<path fill="#e52a18" d="M19.898 0.494c-1.73-0.346-3.459-0.519-5.189-0.346v31.827c8.822 0.692 16.605-5.881 17.297-14.703 0.519-7.957-4.497-15.049-12.108-16.778z"></path>
<path fill="#009b3e" d="M14.709-0.025c-8.822 0.692-15.395 8.476-14.703 17.47 0.519 6.919 5.362 12.627 12.108 14.184 0.865 0.173 1.73 0.346 2.595 0.346v-32z"></path>
<path fill="#ffe143" d="M25.953 15.543c-0.173-1.384-0.519-2.768-1.038-3.978h0.173l-0.173-0.346c0 0 0 0-0.173 0l-0.346-0.519c0 0 0 0 0.173 0v0 0 0 0l-0.346-0.346c-0.173 0-0.173-0.173-0.346-0.173-1.73-2.941-4.843-4.843-8.476-5.016v-0.173h-0.173c-0.173 0.173-0.346 0.173-0.519 0.173s-0.346 0-0.519 0v0h-0.173c-3.459 0.173-6.573 2.076-8.476 4.843-0.173 0-0.346 0-0.346 0.173v0 0h-0.346v0.173l-0.173 0.692-0.173 0.346-0.173 0.173c0 0 0 0-0.173 0v0 0 0 0 0 0.346c0 0.173 0 0.173 0 0.346-0.346 1.038-0.519 2.076-0.692 3.114-0.173 0-0.173 0-0.346 0v0.346h0.173v0.692h-0.173v0.346c0 0 0.173 0 0.173 0.173 0.173 1.384 0.519 2.768 1.038 4.151h-0.173l0.173 0.173c0.173 0 0.173 0 0.346 0.173l0.173 0.346h-0.173l0.346 0.692h0.173c0 0 0.173 0.173 0.346 0.346v0 0c1.903 2.595 5.016 4.497 8.476 4.67v0.173h0.173c0.173 0 0.346 0 0.519 0s0.346 0 0.519 0v0h0.173c3.113-0.173 6.054-1.73 7.957-3.978v0h0.346l0.173-0.173v-0.173l0.346-0.692 0.173-0.173c0.173 0 0.173 0 0.173 0v-0.173l0.173-0.173c0-0.173 0-0.346-0.173-0.519 0.692-1.211 1.038-2.595 1.211-4.151 0.173 0 0.173 0 0.346-0.173v0 0-0.519h-0.173v-0.692c0 0 0 0 0.173 0v0-0.519c0 0-0.173 0-0.173 0zM6.407 21.943c0.865-0.173 1.557-0.346 2.422-0.519 1.73-0.173 3.459-0.346 5.189-0.346v1.903c-2.076 0-3.978-0.173-6.054-0.519-0.519 0-0.865-0.173-1.384-0.346 0 0 0 0-0.173-0.173zM9.866 11.564c-0.865-0.519-1.73-0.865-2.422-1.211 0.173 0 0.346 0 0.692 0 1.903-0.346 3.978-0.519 5.881-0.519v1.903c-1.384 0-2.768 0-4.151-0.173zM15.401 21.078c0.692 0 1.557 0 2.249 0.173 1.038 0.519 2.076 1.038 3.113 1.384-1.73 0.346-3.459 0.346-5.362 0.346v-1.903zM8.482 15.716c0.865 0.519 1.73 1.038 2.595 1.73-0.865 0-1.903-0.173-2.768-0.346-1.038-0.173-2.076-0.519-3.114-0.865 0.692-0.173 1.384-0.346 1.903-0.519 0.519 0 0.865 0 1.384 0zM15.228 19.867v0 0 0 0zM19.725 17.099c-0.865-0.519-1.73-1.211-2.768-1.73 1.73 0 3.287 0.173 5.016 0.519 0.865 0.173 1.557 0.346 2.422 0.519-1.038 0.346-1.903 0.519-2.941 0.692-0.692 0-1.211 0-1.73 0zM15.401 11.737v-1.903c1.903 0 3.978 0.173 5.881 0.519 0.519 0 1.038 0.173 1.557 0.346l0.173 0.173c-0.692 0.173-1.557 0.519-2.249 0.519-1.903 0.173-3.632 0.346-5.362 0.346zM21.801 14.332c-2.249-0.346-4.324-0.346-6.4-0.519v-0.865c1.903 0 3.805-0.173 5.535-0.346 0.865-0.173 1.73-0.346 2.595-0.519 0.519 1.038 0.865 2.076 0.865 3.114-0.692-0.519-1.73-0.692-2.595-0.865zM21.109 9.143c-1.903-0.346-3.805-0.519-5.708-0.519v-2.249c2.422 0.173 4.67 1.211 6.227 2.768-0.173 0-0.346 0-0.519 0zM14.017 8.624c-1.903 0-3.805 0.173-5.708 0.519-0.173 0-0.346 0-0.519 0.173 1.557-1.557 3.805-2.595 6.227-2.768v2.076zM6.753 14.505c-0.692 0.173-1.211 0.346-1.903 0.519 0-0.692 0.173-1.211 0.346-1.73 0.346 0.346 1.038 0.865 1.557 1.211zM7.963 18.483c1.903 0.173 3.805 0.346 5.535 0.346 0.173 0.173 0.346 0.173 0.519 0.346v0.865c-1.903 0-3.632 0.173-5.535 0.346-0.865 0.173-1.903 0.346-2.768 0.692-0.519-1.038-0.865-2.076-1.038-3.114 1.211 0 2.249 0.346 3.287 0.519zM8.309 23.845c1.903 0.173 3.805 0.346 5.708 0.346v2.076c-2.249-0.173-4.324-1.038-6.054-2.595 0.173 0 0.173 0.173 0.346 0.173zM15.401 24.191c1.903 0 3.632-0.173 5.535-0.519 0.173 0 0.346-0.173 0.519-0.173-1.557 1.557-3.805 2.422-6.054 2.595v-1.903zM21.455 18.31h0.173c1.038-0.173 1.903-0.346 2.941-0.692-0.173 0.865-0.346 1.73-0.692 2.595-0.692-0.519-1.384-1.211-2.422-1.903z"></path>
<path fill="#fff" d="M7.963 17.445c0 3.632 3.113 6.573 6.746 6.573s6.573-2.941 6.573-6.573v-8.822h-13.319v8.822z"></path>
<path fill="#e52a18" d="M8.309 17.445v0c0 3.459 2.941 6.4 6.4 6.4s6.4-2.941 6.4-6.4v-8.649h-12.8v8.649z"></path>
<path fill="#fff" d="M10.904 17.099v0c0 1.038 0.346 2.076 1.038 2.941 1.211 1.557 3.459 1.557 5.016 0.346 0.173-0.173 0.173-0.173 0.346-0.346 0.692-0.865 1.038-1.903 1.038-2.941v-5.708h-7.438v5.708z"></path>
<path fill="#0069b4" d="M13.844 16.58v0l0.173 0.692 0.519 0.346 0.519-0.346 0.519-0.692v-1.384h-1.73v1.384z"></path>
<path fill="#fff" d="M14.975 15.591l0.122-0.122 0.122 0.122-0.122 0.122-0.122-0.122z"></path>
<path fill="#fff" d="M14.709 16.061l-0.173 0.173 0.173 0.173 0.173-0.173-0.173-0.173z"></path>
<path fill="#fff" d="M15.228 16.407l-0.173 0.173 0.173 0.173 0.173-0.173-0.173-0.173z"></path>
<path fill="#fff" d="M14.19 16.407l-0.173 0.173 0.173 0.173 0.173-0.173-0.173-0.173z"></path>
<path fill="#fff" d="M14.19 15.543l-0.173 0.173 0.173 0.173v-0.346z"></path>
<path fill="#0069b4" d="M11.596 16.58v0l0.173 0.692 0.519 0.346 0.519-0.346 0.173-0.692v-1.384h-1.73v1.384h0.346z"></path>
<path fill="#fff" d="M12.524 15.625l0.122-0.122 0.122 0.122-0.122 0.122-0.122-0.122z"></path>
<path fill="#fff" d="M12.288 16.061v0 0z"></path>
<path fill="#fff" d="M12.807 16.407l-0.173 0.173 0.173 0.173 0.173-0.173-0.173-0.173z"></path>
<path fill="#fff" d="M11.942 16.407l-0.173 0.173 0.173 0.173 0.173-0.173-0.173-0.173z"></path>
<path fill="#fff" d="M11.942 15.543l-0.173 0.173 0.173 0.173 0.173-0.173-0.173-0.173z"></path>
<path fill="#0069b4" d="M16.266 16.58l0.173 0.692 0.519 0.346 0.519-0.346 0.173-0.692v-1.384h-1.73v1.384h0.346z"></path>
<path fill="#fff" d="M17.305 15.758l0.122-0.122 0.122 0.122-0.122 0.122-0.122-0.122z"></path>
<path fill="#fff" d="M16.958 16.061l-0.173 0.173 0.173 0.173 0.173-0.173-0.173-0.173z"></path>
<path fill="#fff" d="M17.477 16.407l-0.173 0.173 0.173 0.173 0.173-0.173-0.173-0.173z"></path>
<path fill="#fff" d="M16.612 16.407l-0.173 0.173 0.173 0.173 0.173-0.173-0.173-0.173z"></path>
<path fill="#fff" d="M16.612 15.543v0 0.346l0.173-0.173-0.173-0.173z"></path>
<path fill="#0069b4" d="M13.844 19.348v0l0.173 0.692 0.519 0.346 0.519-0.346 0.519-0.692v-1.211h-1.73v1.211z"></path>
<path fill="#fff" d="M15.021 18.577l0.122-0.122 0.122 0.122-0.122 0.122-0.122-0.122z"></path>
<path fill="#fff" d="M14.709 18.829l-0.173 0.173 0.173 0.173 0.173-0.173-0.173-0.173z"></path>
<path fill="#fff" d="M15.228 19.348l-0.173 0.173 0.173 0.173 0.173-0.173-0.173-0.173z"></path>
<path fill="#fff" d="M14.19 19.348l-0.173 0.173 0.173 0.173 0.173-0.173-0.173-0.173z"></path>
<path fill="#fff" d="M14.19 18.31l-0.173 0.173 0.173 0.173v-0.346z"></path>
<path fill="#0069b4" d="M13.844 13.64v0l0.173 0.692 0.519 0.346 0.519-0.346 0.519-0.692v-1.211h-1.73v1.211z"></path>
<path fill="#fff" d="M15.001 12.851l0.122-0.122 0.122 0.122-0.122 0.122-0.122-0.122z"></path>
<path fill="#fff" d="M14.709 13.121l-0.173 0.173 0.173 0.173 0.173-0.173-0.173-0.173z"></path>
<path fill="#fff" d="M15.228 13.64v0 0z"></path>
<path fill="#fff" d="M14.19 13.64v0 0.346l0.173-0.173-0.173-0.173z"></path>
<path fill="#fff" d="M14.19 12.775v0 0z"></path>
<path fill="#ffe143" d="M9.52 10.353l0.519 0.692h-0.865l0.346-0.692z"></path>
<path fill="#ffe143" d="M10.558 11.045v0l-0.173-0.692h0.173v-0.346h-0.173v-0.346h0.173v-0.346h-0.173v0.173h-0.173v-0.173h-0.346v0.346h0.173v0.346h-0.173v-1.038h-0.346v0.173h-0.173v-0.173 1.038h-0.173v-0.346h0.173v-0.346h-0.173v0.173h-0.346v-0.173h-0.173v0.346h0.173v0.346h-0.173v1.038l-0.173 0.173h2.076z"></path>
<path fill="#ffe143" d="M15.747 11.045v0l-0.173-0.692h0.173l-0.173-0.173h0.173l-0.173-0.173v-0.519h-0.173v-0.173h-0.346v0.692l-0.173-0.692h0.173v-0.346h-0.346v0.173h-0.173v-0.173h-0.173v0.346h0.173v0.692h-0.173v-0.346h0.173v-0.346h-0.173v0.173h-0.173v-0.173h-0.346v0.692l-0.173 0.173h0.173v0.865l-0.173 0.173h2.076z"></path>
<path fill="#ffe143" d="M20.59 11.045v0-1.73h-0.346v0.173h-0.173v-0.173 0.692h-0.173v-0.692h0.173v-0.346h-0.173v0.173h-0.173v-0.173h-0.346v0.346h0.173l-0.173 0.692v-0.692h-0.346v0.173h-0.173v-0.173 0.692l-0.173 0.173h0.173l-0.173 0.173h0.173l-0.173 0.692v0.173h2.076z"></path>
<path fill="#ffe143" d="M10.558 15.889v0l-0.173-0.692h0.173v-0.346h-0.173v-0.346h0.173v-0.346h-0.173v0.173h-0.173v-0.173h-0.346v0.346h0.173v0.346h-0.173v-1.038h-0.346v0.173h-0.173v-0.173 1.038h-0.173v-0.346h0.173v-0.346h-0.173v0.173h-0.346v-0.173h-0.173v0.346h0.173v0.346h-0.173v1.038l-0.173 0.173h2.076z"></path>
<path fill="#ffe143" d="M20.59 15.889v0-1.73h-0.346v0.173h-0.173v-0.173 0.692h-0.173v-0.692h0.173v-0.346h-0.173v0.173h-0.173v-0.173h-0.346v0.346h0.173l-0.173 0.692v-0.692h-0.346v0.173h-0.173v-0.173 0.692l-0.173 0.173h0.173l-0.173 0.173h0.173l-0.173 0.692v0.173h2.076z"></path>
<path fill="#ffe143" d="M11.942 20.386v0l-0.519-0.346v-0.173h-0.173v-0.173h-0.173l-0.346-0.173h0.173v-0.173l-0.173-0.173-0.173 0.173h0.173l-0.173 0.173v-0.173l-0.173 0.173h0.173l-0.173 0.173v-0.173l-0.173 0.173 0.173 0.173h0.173l0.173 0.173v0.173l-0.519-0.519v-0.173l-0.173-0.173-0.173 0.173h0.173l-0.173 0.173v-0.173l-0.173 0.173h0.173l-0.173 0.173v-0.173l-0.173 0.173 0.173 0.173h0.173l0.519 0.519h-0.173l-0.173-0.173v-0.173l-0.173-0.173-0.173 0.173h0.173l-0.173 0.173v-0.173l-0.173 0.173h0.173l-0.173 0.173v-0.173l-0.173 0.173 0.173 0.173h0.173v-0.173l0.173 0.346v0.173h0.173v0.173h0.173l0.346 0.519v0.173h0.173l1.384-1.384v-0.173z"></path>
<path fill="#ffe143" d="M18.861 21.77v0l0.692-0.692v-0.173l0.173-0.346 0.173 0.173 0.173-0.173-0.519-0.519v0.346l-0.346 0.173 0.346-0.519h0.173l0.173-0.173-0.346-0.346v-0.173l-0.173 0.173v0.173l-0.519 0.519-0.173-0.173 0.346-0.173 0.173-0.173v-0.173l-0.173 0.173v-0.346l-0.173 0.173v-0.346l-0.173 0.173v0.173l-0.346 0.173h-0.173v0.173h-0.173l0.173 0.173-0.692 0.346v0.173l1.384 1.384z"></path>
</svg>
