<!-- Generated by IcoMoon.io -->
<svg version="1.1" xmlns="http://www.w3.org/2000/svg" width="32" height="32" viewBox="0 0 32 32">
<title>country-uk</title>
<path fill="#24356b" d="M0.499 12.165c2.092-8.541 10.808-13.771 19.349-11.679s13.771 10.808 11.679 19.349c-2.092 8.541-10.808 13.771-19.349 11.679-8.541-2.266-13.771-10.808-11.679-19.349z"></path>
<path fill="#f5f1ee" d="M27.343 4.67l-6.45 4.358v-8.193c-0.349-0.174-0.697-0.174-1.046-0.349-2.963-0.697-5.927-0.697-8.716 0.349v8.193l-6.45-4.184c-1.569 1.569-2.615 3.312-3.486 5.229l1.743 1.046h-2.092c-0.174 0.349-0.174 0.697-0.349 1.046-0.697 2.963-0.697 5.927 0.349 8.89h2.092l-1.743 1.046c0.872 1.917 2.092 3.661 3.486 5.229l6.275-4.184v8.018c0.349 0.174 0.697 0.174 1.046 0.349 2.963 0.697 5.927 0.697 8.716-0.349v-8.018l6.275 4.184c1.569-1.569 2.789-3.312 3.486-5.229l-1.743-1.22h2.092c0.174-0.349 0.174-0.697 0.349-1.22 0.697-2.789 0.697-5.927-0.349-8.716h-2.092l1.743-1.22c-0.523-1.743-1.569-3.486-3.138-5.055z"></path>
<path fill="#e52a18" d="M8.691 11.119l-5.927-4.009c-0.349 0.523-0.697 1.22-1.046 1.917l3.138 2.092h3.835zM29.261 7.11c-0.349-0.523-0.872-1.22-1.395-1.743l-7.147 4.707v1.046h2.44l6.101-4.009zM2.765 24.89c0.349 0.523 0.872 1.22 1.395 1.743l6.973-4.706v-0.872h-2.615l-5.752 3.835zM31.701 13.211h-12.899v-12.899c-1.917-0.349-3.835-0.349-5.752 0v12.899h-12.725c-0.349 1.917-0.349 3.835 0 5.752h12.725v12.725c1.917 0.349 3.835 0.349 5.752 0v-12.725h12.899c0.349-1.917 0.349-3.835 0-5.752zM23.508 20.881l5.752 3.835c0.349-0.523 0.697-1.22 1.046-1.917l-2.963-1.917h-3.835z"></path>
</svg>
