<!-- Generated by IcoMoon.io -->
<svg version="1.1" xmlns="http://www.w3.org/2000/svg" width="32" height="32" viewBox="0 0 32 32">
<title>country-it</title>
<path fill="#f6f6f6" d="M0.47 12.156c1.784-7.032 8.058-12.152 15.527-12.152 8.835 0 15.996 7.162 15.996 15.996s-7.162 15.996-15.996 15.996c-1.365 0-2.69-0.171-3.955-0.493l0.111 0.024c-7.032-1.787-12.151-8.061-12.151-15.531 0-1.364 0.171-2.688 0.492-3.951l-0.024 0.111z"></path>
<path fill="#009b3e" d="M10.639 0.926c-6.253 2.27-10.64 8.16-10.64 15.074s4.386 12.804 10.528 15.039l0.111 0.035z"></path>
<path fill="#e52a18" d="M21.384 0.933v30.124c6.237-2.278 10.61-8.159 10.61-15.062s-4.372-12.785-10.499-15.027l-0.111-0.036z"></path>
</svg>
