<!-- Generated by IcoMoon.io -->
<svg version="1.1" xmlns="http://www.w3.org/2000/svg" width="32" height="32" viewBox="0 0 32 32">
<title>facebook</title>
<path d="M21.469 30.639h-4.806v-11.636h-2.397v-3.968h2.397v-2.397c0-3.27 1.361-5.201 5.201-5.201h3.212v3.991h-2.001c-1.501 0-1.606 0.559-1.606 1.606v2.001h3.631l-0.431 4.003h-3.2v11.636z"></path>
<path d="M24.506 32h-17.012c-4.136-0.007-7.487-3.358-7.494-7.493v-17.013c0.007-4.136 3.358-7.487 7.493-7.494h17.013c4.136 0.007 7.487 3.358 7.494 7.493v17.013c-0.007 4.136-3.358 7.487-7.493 7.494h-0.001zM7.494 1.745c-3.159 0.039-5.709 2.589-5.748 5.745v17.016c0.039 3.159 2.589 5.709 5.745 5.748h17.016c3.159-0.039 5.709-2.589 5.748-5.745v-17.016c-0.039-3.159-2.589-5.709-5.745-5.748h-0.004z"></path>
</svg>
