<!-- Generated by IcoMoon.io -->
<svg version="1.1" xmlns="http://www.w3.org/2000/svg" width="32" height="32" viewBox="0 0 32 32">
<title>fid</title>
<path d="M28.754 5.681h-25.506c-0.1-0.012-0.216-0.019-0.333-0.019-1.583 0-2.872 1.262-2.914 2.836v14.174c0 0.015-0.001 0.034-0.001 0.052 0 1.871 1.413 3.412 3.23 3.613l0.016 0.001h25.506c1.833-0.202 3.247-1.743 3.247-3.613 0-0.019 0-0.038-0.001-0.058v0.003-14.17c0.038-1.766-1.428-2.82-3.247-2.82zM3.248 6.945h25.506c1.096 0 1.982 0.463 1.982 1.56v2.235h-29.512v-2.24c0.042-1.091 0.927-1.556 2.024-1.556zM30.774 14.112h-29.508v-2.107h29.512zM28.75 25.073h-25.502c-1.096 0-1.982-1.307-1.982-2.403v-7.289h29.512v7.293c0 0.013 0.001 0.028 0.001 0.044 0 1.189-0.872 2.175-2.011 2.353l-0.014 0.002z"></path>
</svg>
