<!-- Generated by IcoMoon.io -->
<svg version="1.1" xmlns="http://www.w3.org/2000/svg" width="32" height="32" viewBox="0 0 32 32">
<title>heart</title>
<path d="M22.228 0.969c2.713 0.004 5.163 1.126 6.914 2.93l0.002 0.002c1.766 1.821 2.855 4.308 2.855 7.050 0 2.721-1.073 5.191-2.818 7.011l0.004-0.004-12.491 12.785c-0.177 0.18-0.422 0.291-0.693 0.291-0.264 0-0.503-0.105-0.677-0.276v0l-0.016-0.016-12.459-12.744c-1.764-1.823-2.85-4.309-2.85-7.050s1.087-5.227 2.853-7.052l-0.003 0.003c1.752-1.808 4.204-2.931 6.917-2.931 2.382 0 4.562 0.864 6.243 2.297l-0.013-0.011c1.667-1.422 3.846-2.286 6.227-2.286 0.002 0 0.004 0 0.006 0v0zM27.763 5.255c-1.401-1.446-3.361-2.343-5.529-2.343-2.081 0-3.969 0.826-5.355 2.168l0.002-0.002q-0.094 0.090-0.178 0.178c-0.177 0.18-0.422 0.292-0.694 0.292-0.263 0-0.502-0.105-0.677-0.275l-0.018-0.018c-1.401-1.446-3.361-2.344-5.53-2.344-2.081 0-3.97 0.826-5.356 2.169l0.002-0.002q-0.092 0.090-0.178 0.178c-1.424 1.471-2.302 3.48-2.302 5.693s0.878 4.221 2.305 5.695l-0.002-0.002 11.761 12.035 11.725-11.996c1.443-1.477 2.334-3.501 2.334-5.731 0-2.213-0.876-4.221-2.299-5.696l0.003 0.003z"></path>
</svg>
