<!-- Generated by IcoMoon.io -->
<svg version="1.1" xmlns="http://www.w3.org/2000/svg" width="32" height="32" viewBox="0 0 32 32">
<title>home</title>
<path d="M31.058 15.792c-0.128 0.129-0.306 0.208-0.502 0.208s-0.374-0.080-0.502-0.208v0l-6.502-6.5c-0.046-0.037-0.087-0.077-0.123-0.122l-0.001-0.002-2.785-2.785c-0.046-0.037-0.087-0.077-0.123-0.122l-0.001-0.002-4.527-4.529-14.060 14.061c-0.127 0.12-0.298 0.193-0.487 0.193-0.392 0-0.711-0.318-0.711-0.711 0-0.189 0.074-0.36 0.194-0.488v0l14.474-14.474c0.021-0.042 0.044-0.078 0.069-0.111l-0.001 0.002c0.136-0.126 0.319-0.203 0.52-0.203s0.384 0.077 0.52 0.203h-0.001c0.025 0.032 0.049 0.068 0.068 0.106l0.002 0.004 3.774 3.775v-1.907c0-0.402 0.326-0.727 0.727-0.727v0h2.909c0.401 0.001 0.726 0.326 0.727 0.727v6.264l6.338 6.338c0.131 0.129 0.212 0.308 0.212 0.506 0 0.196-0.080 0.374-0.208 0.503v0zM23.265 2.909h-1.454v2.632l1.455 1.455zM5.81 14.545c0.401 0.001 0.726 0.326 0.727 0.727v13.816c0 0.804 0.652 1.455 1.455 1.455v0h4.364v-9.451c0-0.402 0.325-0.727 0.727-0.727v0h5.818c0.402 0 0.727 0.326 0.727 0.727v9.454h4.364c0 0 0.001 0 0.001 0 0.803 0 1.454-0.651 1.454-1.454 0 0 0-0.001 0-0.001v0-13.816c0-0.402 0.326-0.728 0.728-0.728s0.728 0.326 0.728 0.728v13.816c0 1.607-1.302 2.909-2.909 2.909v0h-16.001c-1.607 0-2.909-1.302-2.909-2.909v0-13.816c0-0.001 0-0.001 0-0.002 0-0.402 0.325-0.727 0.727-0.727 0 0 0 0 0 0v0zM18.173 30.544v-8.721h-4.364v8.727h4.364z"></path>
</svg>
