<!-- Generated by IcoMoon.io -->
<svg version="1.1" xmlns="http://www.w3.org/2000/svg" width="32" height="32" viewBox="0 0 32 32">
<title>instagram</title>
<path d="M24.506 32h-17.012c-4.136-0.007-7.487-3.358-7.494-7.493v-17.013c0.007-4.136 3.358-7.487 7.493-7.494h17.013c4.136 0.007 7.487 3.358 7.494 7.493v17.013c-0.007 4.136-3.358 7.487-7.493 7.494h-0.001zM7.494 1.745c-3.159 0.039-5.709 2.589-5.748 5.745v17.016c0.039 3.159 2.589 5.709 5.745 5.748h17.016c3.159-0.039 5.709-2.589 5.748-5.745v-17.016c-0.039-3.159-2.589-5.709-5.745-5.748h-0.004z"></path>
<path d="M16 9.437c0.055-0.002 0.119-0.003 0.183-0.003 3.625 0 6.563 2.938 6.563 6.563s-2.938 6.563-6.563 6.563c-3.558 0-6.455-2.832-6.56-6.364v-0.196c0-0.024-0.001-0.053-0.001-0.082 0-3.543 2.843-6.422 6.372-6.481h0.005zM16 8.273c-0.055-0.001-0.119-0.002-0.184-0.002-4.293 0-7.773 3.48-7.773 7.773s3.48 7.773 7.773 7.773c4.227 0 7.666-3.374 7.771-7.575v-0.196c0-0.031 0.001-0.068 0.001-0.105 0-4.207-3.387-7.622-7.583-7.668h-0.004z"></path>
<path d="M26.554 7.459c-0.020 0.968-0.809 1.745-1.78 1.745-0.983 0-1.78-0.797-1.78-1.78s0.797-1.78 1.78-1.78v0c0 0 0 0 0 0 0.983 0 1.78 0.797 1.78 1.78 0 0.012 0 0.025 0 0.037v-0.002z"></path>
<path d="M24.774 10.356h-0.070c-1.588-0.032-2.864-1.327-2.864-2.92 0-0.033 0.001-0.066 0.002-0.098v0.005c0.026-1.587 1.318-2.863 2.909-2.863 0.008 0 0.017 0 0.025 0h-0.001c1.627 0.006 2.944 1.327 2.944 2.956 0 0.012 0 0.025 0 0.037v-0.002c-0.033 1.601-1.338 2.886-2.943 2.886 0 0 0 0-0.001 0v0zM24.774 6.807c-0.328 0-0.593 0.266-0.593 0.593v0c-0.001 0.012-0.002 0.027-0.002 0.042 0 0.156 0.063 0.298 0.165 0.401v0c0.109 0.113 0.261 0.184 0.43 0.186v0c0.333-0.005 0.604-0.264 0.628-0.591v-0.002c0 0 0 0 0 0 0-0.347-0.281-0.628-0.628-0.628-0.004 0-0.008 0-0.012 0h0.001z"></path>
</svg>
