<?xml version="1.0" encoding="utf-8"?>
<!-- Generator: Adobe Illustrator 22.1.0, SVG Export Plug-In . SVG Version: 6.00 Build 0)  -->
<svg version="1.1" id="Calque_1" xmlns="http://www.w3.org/2000/svg" xmlns:xlink="http://www.w3.org/1999/xlink" x="0px" y="0px"
	 viewBox="0 0 171 32" style="enable-background:new 0 0 171 32;" xml:space="preserve">
<style type="text/css">
	.st0{fill:#F7968E;}
</style>
<title>stars-full</title>
<path class="st0" d="M16.8,0l4,12.2h12.8l-10.4,7.5l4,12.2l-10.4-7.5L6.4,32l4-12.2L0,12.2h12.8L16.8,0z"/>
<path class="st0" d="M51.1,0l4,12.2h12.8l-10.4,7.5l4,12.2l-10.4-7.5L40.8,32l4-12.2l-10.4-7.5h12.8L51.1,0L51.1,0z"/>
<path class="st0" d="M85.4,0l4,12.2h12.8l-10.4,7.5l4,12.2l-10.4-7.5L75.1,32l4-12.2l-10.4-7.5h12.8L85.4,0L85.4,0z"/>
<path class="st0" d="M119.8,0l4,12.2h12.8l-10.4,7.5l4,12.2l-10.4-7.5L109.4,32l4-12.2L103,12.3h12.8L119.8,0L119.8,0z"/>
<path class="st0" d="M154.1,0l4,12.2h12.8l-10.4,7.5l4,12.2l-10.4-7.5L143.7,32l4-12.2l-10.4-7.5h12.8L154.1,0L154.1,0z"/>
</svg>
